<?xml version="1.0" standalone="no"?><!DOCTYPE svg PUBLIC "-//W3C//DTD SVG 1.1//EN" "http://www.w3.org/Graphics/SVG/1.1/DTD/svg11.dtd"><svg t="1716173943021" class="icon" viewBox="0 0 1024 1024" version="1.1" xmlns="http://www.w3.org/2000/svg" p-id="943" xmlns:xlink="http://www.w3.org/1999/xlink" width="200" height="200"><path d="M388.678922 41.697042L62.097931 288.187062A154.476832 154.476832 0 0 0 0 409.310941v412.377072C0.29257 933.303375 95.816595 1023.780573 213.868492 1024h218.110754c23.551865 0 42.715184-18.066182 42.715184-40.374626 0-22.308444-19.163319-40.374626-42.715184-40.374627v-0.877709H308.953663v-0.219427H211.820504c-3.949692 0-7.753099-0.219427-11.556506-0.511998-64.365346-6.58282-114.394775-57.928812-114.906771-120.392454V410.77379c0.146285-22.381586 10.751939-43.592894 28.891263-57.782527l38.472923-26.98956a40.594054 40.594054 0 0 0 5.99768-7.753099l282.914955-213.50278c20.479883-15.945052 45.348312-23.99072 70.363026-24.137005 25.014714 0.146285 49.956286 8.191953 70.363027 24.137005l327.4587 247.148302c18.870749 14.116491 29.9884 35.547225 30.354112 58.294524v410.841081c0 66.852189-57.343672 121.123879-127.999268 121.12388H715.040485a17.554185 17.554185 0 0 1-17.99304-17.042189v-185.269798c0-59.025948-50.395141-106.934246-112.785641-107.153674H442.146045c-29.9884 0-58.806521 11.263936-80.090971 31.378107-21.211307 20.114171-33.133525 47.323158-33.133525 75.775567v70.875023c0 22.308444 19.017034 40.374626 42.642042 40.374627 23.551865 0 42.642042-18.066182 42.642042-40.374627v-70.875023a25.307284 25.307284 0 0 1 7.826241-18.651322 28.306124 28.306124 0 0 1 19.602174-7.826241h142.188902c15.140485 0 27.501557 11.70279 27.501557 26.038708v185.708653c0.219427 54.052263 46.591734 97.718299 103.715978 97.718299h94.792602c118.051897 0 213.722207-90.55034 213.722207-202.238844L1023.994149 409.310941a154.476832 154.476832 0 0 0-62.024789-121.123879L635.388369 41.697042l0.511997-0.658282A203.335981 203.335981 0 0 0 511.997074 0.005851a203.335981 203.335981 0 0 0-123.903292 41.032909l0.58514 0.658282z" fill="#000000" p-id="944"></path></svg>