<?xml version="1.0" standalone="no"?><!DOCTYPE svg PUBLIC "-//W3C//DTD SVG 1.1//EN" "http://www.w3.org/Graphics/SVG/1.1/DTD/svg11.dtd"><svg height="751" node-id="1" sillyvg="true" template-height="751" template-width="1230" version="1.1" viewBox="0 0 1230 751" width="1230" xmlns="http://www.w3.org/2000/svg" xmlns:xlink="http://www.w3.org/1999/xlink"><defs node-id="250"></defs><g node-id="252"><g node-id="253"><g node-id="254"><g node-id="256"><path d="M 622.80 581.30 L 622.80 628.60 L 575.50 628.60 L 575.50 581.30 Z" fill="none" group-id="1,2,3,5" id="Rectangle" node-id="8" stroke="#cce3ff" stroke-linecap="butt" stroke-width="8.55" target-height="47.299988" target-width="47.299988" target-x="575.5" target-y="581.3"></path></g><path d="M 575.50 581.30 L 622.80 628.60" fill="none" group-id="1,2,3" id="Path" node-id="9" stroke="#cce3ff" stroke-linecap="butt" stroke-width="8.55" target-height="47.299988" target-width="47.299988" target-x="575.5" target-y="581.3"></path><path d="M 575.50 628.60 L 622.80 581.30" fill="none" group-id="1,2,3" id="Path" node-id="10" stroke="#cce3ff" stroke-linecap="butt" stroke-width="8.55" target-height="47.299988" target-width="47.299988" target-x="575.5" target-y="581.3"></path><g node-id="257"><path d="M 528.30 581.30 L 528.30 628.60 L 481.00 628.60 L 481.00 581.30 Z" fill="none" group-id="1,2,3,6" id="Rectangle" node-id="11" stroke="#cce3ff" stroke-linecap="butt" stroke-width="8.55" target-height="47.299988" target-width="47.299988" target-x="481" target-y="581.3"></path></g><path d="M 481.00 581.30 L 528.30 628.60" fill="none" group-id="1,2,3" id="Path" node-id="12" stroke="#cce3ff" stroke-linecap="butt" stroke-width="8.55" target-height="47.299988" target-width="47.299988" target-x="481" target-y="581.3"></path><path d="M 481.00 628.60 L 528.30 581.30" fill="none" group-id="1,2,3" id="Path" node-id="13" stroke="#cce3ff" stroke-linecap="butt" stroke-width="8.55" target-height="47.299988" target-width="47.299988" target-x="481" target-y="581.3"></path><g node-id="258"><path d="M 575.50 581.30 L 575.50 628.60 L 528.30 628.60 L 528.30 581.30 Z" fill="none" group-id="1,2,3,7" id="Rectangle" node-id="14" stroke="#cce3ff" stroke-linecap="butt" stroke-width="8.55" target-height="47.299988" target-width="47.200012" target-x="528.3" target-y="581.3"></path></g><path d="M 528.30 581.30 L 575.50 628.60" fill="none" group-id="1,2,3" id="Path" node-id="15" stroke="#cce3ff" stroke-linecap="butt" stroke-width="8.55" target-height="47.299988" target-width="47.200012" target-x="528.3" target-y="581.3"></path><path d="M 528.30 628.60 L 575.50 581.30" fill="none" group-id="1,2,3" id="Path" node-id="16" stroke="#cce3ff" stroke-linecap="butt" stroke-width="8.55" target-height="47.299988" target-width="47.200012" target-x="528.3" target-y="581.3"></path><g node-id="259"><path d="M 528.30 534.10 L 528.30 581.30 L 481.00 581.30 L 481.00 534.10 Z" fill="none" group-id="1,2,3,8" id="Rectangle" node-id="17" stroke="#cce3ff" stroke-linecap="butt" stroke-width="8.55" target-height="47.200012" target-width="47.299988" target-x="481" target-y="534.1"></path></g><path d="M 481.00 534.10 L 528.30 581.30" fill="none" group-id="1,2,3" id="Path" node-id="18" stroke="#cce3ff" stroke-linecap="butt" stroke-width="8.55" target-height="47.200012" target-width="47.299988" target-x="481" target-y="534.1"></path><path d="M 481.00 581.30 L 528.30 534.10" fill="none" group-id="1,2,3" id="Path" node-id="19" stroke="#cce3ff" stroke-linecap="butt" stroke-width="8.55" target-height="47.200012" target-width="47.299988" target-x="481" target-y="534.1"></path><g node-id="260"><path d="M 410.70 581.30 L 410.70 628.60 L 363.40 628.60 L 363.40 581.30 Z" fill="none" group-id="1,2,3,9" id="Rectangle" node-id="20" stroke="#cce3ff" stroke-linecap="butt" stroke-width="8.55" target-height="47.299988" target-width="47.30002" target-x="363.4" target-y="581.3"></path></g><path d="M 363.40 581.30 L 410.70 628.60" fill="none" group-id="1,2,3" id="Path" node-id="21" stroke="#cce3ff" stroke-linecap="butt" stroke-width="8.55" target-height="47.299988" target-width="47.30002" target-x="363.4" target-y="581.3"></path><path d="M 363.40 628.60 L 410.70 581.30" fill="none" group-id="1,2,3" id="Path" node-id="22" stroke="#cce3ff" stroke-linecap="butt" stroke-width="8.55" target-height="47.299988" target-width="47.30002" target-x="363.4" target-y="581.3"></path><path d="M 424.70 315.00 L 365.20 374.50" fill="none" group-id="1,2,3" id="Path" node-id="23" stroke="#cce3ff" stroke-linecap="round" stroke-width="5.7" target-height="59.5" target-width="59.5" target-x="365.2" target-y="315"></path><path d="M 424.90 314.70 L 484.90 374.70" fill="none" group-id="1,2,3" id="Path" node-id="24" stroke="#cce3ff" stroke-linecap="round" stroke-width="5.7" target-height="60" target-width="60" target-x="424.9" target-y="314.7"></path><path d="M 424.90 161.90 L 424.90 315.30" fill="none" group-id="1,2,3" id="Path" node-id="25" stroke="#cce3ff" stroke-linecap="round" stroke-width="5.7" target-height="153.4" target-width="0" target-x="424.9" target-y="161.9"></path><g node-id="261"><path d="M 443.20 167.10 L 406.70 167.10 L 406.70 148.30 L 443.20 148.30 Z" fill="#b6d4ff" fill-rule="evenodd" group-id="1,2,3,10" id="Rectangle" node-id="26" stroke="none" target-height="18.800003" target-width="36.5" target-x="406.7" target-y="148.3"></path></g><path d="M 440.90 127.60 L 440.60 130.70 L 439.70 133.70 L 438.20 136.40 L 436.20 138.90 L 433.80 140.90 L 431.10 142.30 L 428.10 143.20 L 424.90 143.60 L 421.80 143.20 L 418.80 142.30 L 416.10 140.90 L 413.60 138.90 L 411.60 136.40 L 410.20 133.70 L 409.30 130.70 L 409.00 127.60 L 409.20 124.70 L 410.00 122.00 L 411.10 119.50 L 412.70 117.30 L 414.60 115.40 L 416.90 113.80 L 419.30 112.60 L 422.00 111.90 L 424.90 111.60 L 427.90 111.90 L 430.50 112.60 L 433.00 113.80 L 435.20 115.40 L 437.10 117.30 L 438.70 119.50 L 439.90 122.00 L 440.60 124.70 L 440.90 127.60 Z" fill="#b6d4ff" fill-rule="evenodd" group-id="1,2,3" id="Oval" node-id="27" stroke="none" target-height="32.000008" target-width="31.899994" target-x="409" target-y="111.6"></path><path d="M 63.10 122.10 L 196.90 4.70" fill="none" group-id="1,2,3" id="Path" node-id="28" stroke="#cce3ff" stroke-linecap="round" stroke-width="5.7" target-height="117.4" target-width="133.79999" target-x="63.1" target-y="4.7"></path><path d="M 425.50 108.20 L 196.90 4.70" fill="none" group-id="1,2,3" id="Path" node-id="29" stroke="#cce3ff" stroke-linecap="round" stroke-width="5.7" target-height="103.5" target-width="228.6" target-x="196.9" target-y="4.7"></path><g node-id="262"><path d="M 220.50 587.20 L 173.30 587.20 L 173.30 539.90 L 220.50 539.90 Z" fill="none" group-id="1,2,3,11" id="Rectangle" node-id="30" stroke="#cce3ff" stroke-linecap="butt" stroke-width="8.55" target-height="47.299988" target-width="47.199997" target-x="173.3" target-y="539.9"></path></g><path d="M 220.50 539.90 L 173.30 587.20" fill="none" group-id="1,2,3" id="Path" node-id="31" stroke="#cce3ff" stroke-linecap="butt" stroke-width="8.55" target-height="47.299988" target-width="47.199997" target-x="173.3" target-y="539.9"></path><path d="M 173.30 539.90 L 220.50 587.20" fill="none" group-id="1,2,3" id="Path" node-id="32" stroke="#cce3ff" stroke-linecap="butt" stroke-width="8.55" target-height="47.299988" target-width="47.199997" target-x="173.3" target-y="539.9"></path><g node-id="263"><path d="M 220.50 492.70 L 173.30 492.70 L 173.30 445.40 L 220.50 445.40 Z" fill="none" group-id="1,2,3,12" id="Rectangle" node-id="33" stroke="#cce3ff" stroke-linecap="butt" stroke-width="8.55" target-height="47.30002" target-width="47.199997" target-x="173.3" target-y="445.4"></path></g><path d="M 220.50 445.40 L 173.30 492.70" fill="none" group-id="1,2,3" id="Path" node-id="34" stroke="#cce3ff" stroke-linecap="butt" stroke-width="8.55" target-height="47.30002" target-width="47.199997" target-x="173.3" target-y="445.4"></path><path d="M 173.30 445.40 L 220.50 492.70" fill="none" group-id="1,2,3" id="Path" node-id="35" stroke="#cce3ff" stroke-linecap="butt" stroke-width="8.55" target-height="47.30002" target-width="47.199997" target-x="173.3" target-y="445.4"></path><g node-id="264"><path d="M 220.50 539.90 L 173.30 539.90 L 173.30 492.70 L 220.50 492.70 Z" fill="none" group-id="1,2,3,13" id="Rectangle" node-id="36" stroke="#cce3ff" stroke-linecap="butt" stroke-width="8.55" target-height="47.200012" target-width="47.199997" target-x="173.3" target-y="492.7"></path></g><path d="M 220.50 492.70 L 173.30 539.90" fill="none" group-id="1,2,3" id="Path" node-id="37" stroke="#cce3ff" stroke-linecap="butt" stroke-width="8.55" target-height="47.200012" target-width="47.199997" target-x="173.3" target-y="492.7"></path><path d="M 173.30 492.70 L 220.50 539.90" fill="none" group-id="1,2,3" id="Path" node-id="38" stroke="#cce3ff" stroke-linecap="butt" stroke-width="8.55" target-height="47.200012" target-width="47.199997" target-x="173.3" target-y="492.7"></path><g node-id="265"><path d="M 233.00 208.20 L 160.80 208.20 L 160.80 151.60 L 233.00 151.60 Z" fill="#b6d4ff" fill-rule="evenodd" group-id="1,2,3,14" id="Rectangle" node-id="39" stroke="none" target-height="56.59999" target-width="72.2" target-x="160.8" target-y="151.6"></path></g><g node-id="266"><path d="M 220.50 445.40 L 173.30 445.40 L 173.30 398.10 L 220.50 398.10 Z" fill="none" group-id="1,2,3,15" id="Rectangle" node-id="40" stroke="#cce3ff" stroke-linecap="butt" stroke-width="8.55" target-height="47.299988" target-width="47.199997" target-x="173.3" target-y="398.1"></path></g><path d="M 220.50 398.20 L 173.30 445.40" fill="none" group-id="1,2,3" id="Path" node-id="41" stroke="#cce3ff" stroke-linecap="butt" stroke-width="8.55" target-height="47.19998" target-width="47.199997" target-x="173.3" target-y="398.2"></path><path d="M 173.30 398.20 L 220.50 445.40" fill="none" group-id="1,2,3" id="Path" node-id="42" stroke="#cce3ff" stroke-linecap="butt" stroke-width="8.55" target-height="47.19998" target-width="47.199997" target-x="173.3" target-y="398.2"></path><g node-id="267"><path d="M 220.50 350.90 L 173.30 350.90 L 173.30 303.60 L 220.50 303.60 Z" fill="none" group-id="1,2,3,16" id="Rectangle" node-id="43" stroke="#cce3ff" stroke-linecap="butt" stroke-width="8.55" target-height="47.299988" target-width="47.199997" target-x="173.3" target-y="303.6"></path></g><path d="M 220.50 303.60 L 173.30 350.90" fill="none" group-id="1,2,3" id="Path" node-id="44" stroke="#cce3ff" stroke-linecap="butt" stroke-width="8.55" target-height="47.299988" target-width="47.199997" target-x="173.3" target-y="303.6"></path><path d="M 173.30 303.60 L 220.50 350.90" fill="none" group-id="1,2,3" id="Path" node-id="45" stroke="#cce3ff" stroke-linecap="butt" stroke-width="8.55" target-height="47.299988" target-width="47.199997" target-x="173.3" target-y="303.6"></path><g node-id="268"><path d="M 220.50 398.10 L 173.30 398.10 L 173.30 350.90 L 220.50 350.90 Z" fill="none" group-id="1,2,3,17" id="Rectangle" node-id="46" stroke="#cce3ff" stroke-linecap="butt" stroke-width="8.55" target-height="47.200012" target-width="47.199997" target-x="173.3" target-y="350.9"></path></g><path d="M 220.50 350.90 L 173.30 398.20" fill="none" group-id="1,2,3" id="Path" node-id="47" stroke="#cce3ff" stroke-linecap="butt" stroke-width="8.55" target-height="47.30002" target-width="47.199997" target-x="173.3" target-y="350.9"></path><path d="M 173.30 350.90 L 220.50 398.20" fill="none" group-id="1,2,3" id="Path" node-id="48" stroke="#cce3ff" stroke-linecap="butt" stroke-width="8.55" target-height="47.30002" target-width="47.199997" target-x="173.3" target-y="350.9"></path><g node-id="269"><path d="M 220.50 303.60 L 173.30 303.60 L 173.30 256.40 L 220.50 256.40 Z" fill="none" group-id="1,2,3,18" id="Rectangle" node-id="49" stroke="#cce3ff" stroke-linecap="butt" stroke-width="8.55" target-height="47.200012" target-width="47.199997" target-x="173.3" target-y="256.4"></path></g><path d="M 220.50 256.40 L 173.30 303.60" fill="none" group-id="1,2,3" id="Path" node-id="50" stroke="#cce3ff" stroke-linecap="butt" stroke-width="8.55" target-height="47.200012" target-width="47.199997" target-x="173.3" target-y="256.4"></path><path d="M 173.30 256.40 L 220.50 303.60" fill="none" group-id="1,2,3" id="Path" node-id="51" stroke="#cce3ff" stroke-linecap="butt" stroke-width="8.55" target-height="47.200012" target-width="47.199997" target-x="173.3" target-y="256.4"></path><g node-id="270"><path d="M 220.50 209.10 L 173.30 209.10 L 173.30 161.90 L 220.50 161.90 Z" fill="none" group-id="1,2,3,19" id="Rectangle" node-id="52" stroke="#cce3ff" stroke-linecap="butt" stroke-width="8.55" target-height="47.200012" target-width="47.199997" target-x="173.3" target-y="161.9"></path></g><path d="M 220.50 161.90 L 173.30 209.10" fill="none" group-id="1,2,3" id="Path" node-id="53" stroke="#cce3ff" stroke-linecap="butt" stroke-width="8.55" target-height="47.200012" target-width="47.199997" target-x="173.3" target-y="161.9"></path><path d="M 173.30 161.90 L 220.50 209.10" fill="none" group-id="1,2,3" id="Path" node-id="54" stroke="#cce3ff" stroke-linecap="butt" stroke-width="8.55" target-height="47.200012" target-width="47.199997" target-x="173.3" target-y="161.9"></path><g node-id="271"><path d="M 220.50 256.40 L 173.30 256.40 L 173.30 209.10 L 220.50 209.10 Z" fill="none" group-id="1,2,3,20" id="Rectangle" node-id="55" stroke="#cce3ff" stroke-linecap="butt" stroke-width="8.55" target-height="47.299988" target-width="47.199997" target-x="173.3" target-y="209.1"></path></g><path d="M 220.50 209.10 L 173.30 256.40" fill="none" group-id="1,2,3" id="Path" node-id="56" stroke="#cce3ff" stroke-linecap="butt" stroke-width="8.55" target-height="47.299988" target-width="47.199997" target-x="173.3" target-y="209.1"></path><path d="M 173.30 209.10 L 220.50 256.40" fill="none" group-id="1,2,3" id="Path" node-id="57" stroke="#cce3ff" stroke-linecap="butt" stroke-width="8.55" target-height="47.299988" target-width="47.199997" target-x="173.3" target-y="209.1"></path><g node-id="272"><path d="M 293.00 633.40 L 100.80 633.40 L 100.80 587.20 L 293.00 587.20 Z" fill="#cce3ff" fill-rule="evenodd" group-id="1,2,3,21" id="Rectangle" node-id="58" stroke="none" target-height="46.200012" target-width="192.2" target-x="100.8" target-y="587.2"></path></g><g node-id="273"><path d="M 497.00 494.90 L 353.90 494.90 L 351.10 494.60 L 348.40 493.90 L 346.00 492.70 L 343.80 491.10 L 341.90 489.30 L 340.30 487.00 L 339.10 484.60 L 338.40 481.90 L 338.20 479.10 L 338.20 385.10 L 338.40 382.20 L 339.10 379.60 L 340.30 377.10 L 341.90 374.90 L 343.80 373.00 L 346.00 371.50 L 348.40 370.30 L 351.10 369.60 L 353.90 369.30 L 497.00 369.30 L 499.90 369.60 L 502.50 370.30 L 505.00 371.50 L 507.20 373.00 L 509.10 374.90 L 510.60 377.10 L 511.80 379.60 L 512.50 382.20 L 512.80 385.10 L 512.80 479.10 L 512.50 481.90 L 511.80 484.60 L 510.60 487.00 L 509.10 489.30 L 507.20 491.10 L 505.00 492.70 L 502.50 493.90 L 499.90 494.60 L 497.00 494.90 Z" fill="#dceeff" fill-rule="evenodd" group-id="1,2,3,22" id="Rectangle" node-id="59" stroke="none" target-height="125.600006" target-width="174.59998" target-x="338.2" target-y="369.3"></path></g><g node-id="274"><path d="M 512.80 399.00 L 338.20 399.00 L 338.20 380.80 L 338.90 376.80 L 340.90 373.40 L 343.80 370.90 L 347.50 369.50 L 349.60 369.30 L 503.40 369.50 L 505.30 370.00 L 508.70 372.00 L 511.20 375.00 L 512.10 376.80 L 512.80 380.80 L 512.80 399.00 Z" fill="#cce3ff" fill-rule="evenodd" group-id="1,2,3,23" id="Path" node-id="60" stroke="none" target-height="29.700012" target-width="174.59998" target-x="338.2" target-y="369.3"></path></g><g node-id="275"><path d="M 253.40 208.90 L 140.50 208.90 L 140.50 182.30 L 253.40 182.30 Z" fill="#cce3ff" fill-rule="evenodd" group-id="1,2,3,24" id="Rectangle" node-id="61" stroke="none" target-height="26.59999" target-width="112.899994" target-x="140.5" target-y="182.3"></path></g><g node-id="276"><path d="M 264.80 143.20 L 35.40 143.20 L 35.40 122.20 L 264.80 122.20 Z" fill="#b6d4ff" fill-rule="evenodd" group-id="1,2,3,25" id="Rectangle" node-id="62" stroke="none" target-height="21" target-width="229.4" target-x="35.4" target-y="122.2"></path></g><g node-id="277"><path d="M 142.40 132.70 L 97.20 132.70 L 97.20 111.00 L 142.40 111.00 Z" fill="#dceeff" fill-rule="evenodd" group-id="1,2,3,26" id="Rectangle" node-id="63" stroke="none" target-height="21.699997" target-width="45.199997" target-x="97.2" target-y="111"></path></g><g node-id="278"><path d="M 87.80 132.70 L 42.50 132.70 L 42.50 111.00 L 87.80 111.00 Z" fill="#dceeff" fill-rule="evenodd" group-id="1,2,3,27" id="Rectangle" node-id="64" stroke="none" target-height="21.699997" target-width="45.300003" target-x="42.5" target-y="111"></path></g><path d="M 196.90 107.40 L 196.90 4.70" fill="none" group-id="1,2,3" id="Path" node-id="65" stroke="#b6d4ff" stroke-linecap="round" stroke-width="7.6" target-height="102.700005" target-width="0" target-x="196.9" target-y="4.7"></path><path d="M 241.70 97.70 L 196.90 4.70" fill="none" group-id="1,2,3" id="Path" node-id="66" stroke="#b6d4ff" stroke-linecap="round" stroke-width="7.6" target-height="93" target-width="44.800003" target-x="196.9" target-y="4.7"></path><path d="M 152.20 97.70 L 196.90 4.70" fill="none" group-id="1,2,3" id="Path" node-id="67" stroke="#b6d4ff" stroke-linecap="round" stroke-width="7.6" target-height="93" target-width="44.699997" target-x="152.2" target-y="4.7"></path><g node-id="279"><path d="M 244.50 163.10 L 149.40 163.10 L 149.40 92.50 L 244.50 92.50 Z" fill="#cce3ff" fill-rule="evenodd" group-id="1,2,3,28" id="Rectangle" node-id="68" stroke="none" target-height="70.600006" target-width="95.100006" target-x="149.4" target-y="92.5"></path></g><g node-id="280"><path d="M 244.50 150.00 L 194.20 150.00 L 194.20 105.50 L 244.50 105.50 Z" fill="#b6d4ff" fill-rule="evenodd" group-id="1,2,3,29" id="Rectangle" node-id="69" stroke="none" target-height="44.5" target-width="50.300003" target-x="194.2" target-y="105.5"></path></g><path d="M 549.30 148.30 L 509.10 108.20 L 509.10 148.30 Z" fill="none" group-id="1,2,3" id="Path" node-id="70" stroke="#cce3ff" stroke-linecap="butt" stroke-width="6.65" target-height="40.100006" target-width="40.19998" target-x="509.1" target-y="108.2"></path><g node-id="281"><path d="M 465.60 108.20 L 465.60 148.30 L 425.50 148.30 L 425.50 108.20 Z" fill="none" group-id="1,2,3,30" id="Rectangle" node-id="71" stroke="#cce3ff" stroke-linecap="butt" stroke-width="6.65" target-height="40.100006" target-width="40.100006" target-x="425.5" target-y="108.2"></path></g><path d="M 425.50 108.20 L 465.60 148.30" fill="none" group-id="1,2,3" id="Path" node-id="72" stroke="#cce3ff" stroke-linecap="butt" stroke-width="6.65" target-height="40.100006" target-width="40.100006" target-x="425.5" target-y="108.2"></path><path d="M 425.50 148.30 L 465.60 108.20" fill="none" group-id="1,2,3" id="Path" node-id="73" stroke="#cce3ff" stroke-linecap="butt" stroke-width="6.65" target-height="40.100006" target-width="40.100006" target-x="425.5" target-y="108.2"></path><g node-id="282"><path d="M 505.80 108.20 L 505.80 148.30 L 465.60 148.30 L 465.60 108.20 Z" fill="none" group-id="1,2,3,31" id="Rectangle" node-id="74" stroke="#cce3ff" stroke-linecap="butt" stroke-width="6.65" target-height="40.100006" target-width="40.19998" target-x="465.6" target-y="108.2"></path></g><path d="M 465.60 108.20 L 505.80 148.30" fill="none" group-id="1,2,3" id="Path" node-id="75" stroke="#cce3ff" stroke-linecap="butt" stroke-width="6.65" target-height="40.100006" target-width="40.19998" target-x="465.6" target-y="108.2"></path><path d="M 465.60 148.30 L 505.80 108.20" fill="none" group-id="1,2,3" id="Path" node-id="76" stroke="#cce3ff" stroke-linecap="butt" stroke-width="6.65" target-height="40.100006" target-width="40.19998" target-x="465.6" target-y="108.2"></path><g node-id="283"><path d="M 425.50 108.20 L 425.50 148.30 L 385.30 148.30 L 385.30 108.20 Z" fill="none" group-id="1,2,3,32" id="Rectangle" node-id="77" stroke="#cce3ff" stroke-linecap="butt" stroke-width="6.65" target-height="40.100006" target-width="40.200012" target-x="385.3" target-y="108.2"></path></g><path d="M 385.30 108.20 L 425.50 148.30" fill="none" group-id="1,2,3" id="Path" node-id="78" stroke="#cce3ff" stroke-linecap="butt" stroke-width="6.65" target-height="40.100006" target-width="40.200012" target-x="385.3" target-y="108.2"></path><path d="M 385.30 148.30 L 425.50 108.20" fill="none" group-id="1,2,3" id="Path" node-id="79" stroke="#cce3ff" stroke-linecap="butt" stroke-width="6.65" target-height="40.100006" target-width="40.200012" target-x="385.3" target-y="108.2"></path><g node-id="284"><path d="M 345.20 108.20 L 345.20 148.30 L 305.00 148.30 L 305.00 108.20 Z" fill="none" group-id="1,2,3,33" id="Rectangle" node-id="80" stroke="#cce3ff" stroke-linecap="butt" stroke-width="6.65" target-height="40.100006" target-width="40.200012" target-x="305" target-y="108.2"></path></g><path d="M 305.00 108.20 L 345.20 148.30" fill="none" group-id="1,2,3" id="Path" node-id="81" stroke="#cce3ff" stroke-linecap="butt" stroke-width="6.65" target-height="40.100006" target-width="40.200012" target-x="305" target-y="108.2"></path><path d="M 305.00 148.30 L 345.20 108.20" fill="none" group-id="1,2,3" id="Path" node-id="82" stroke="#cce3ff" stroke-linecap="butt" stroke-width="6.65" target-height="40.100006" target-width="40.200012" target-x="305" target-y="108.2"></path><g node-id="285"><path d="M 385.30 108.20 L 385.30 148.30 L 345.20 148.30 L 345.20 108.20 Z" fill="none" group-id="1,2,3,34" id="Rectangle" node-id="83" stroke="#cce3ff" stroke-linecap="butt" stroke-width="6.65" target-height="40.100006" target-width="40.099976" target-x="345.2" target-y="108.2"></path></g><path d="M 345.20 108.20 L 385.30 148.30" fill="none" group-id="1,2,3" id="Path" node-id="84" stroke="#cce3ff" stroke-linecap="butt" stroke-width="6.65" target-height="40.100006" target-width="40.099976" target-x="345.2" target-y="108.2"></path><path d="M 345.20 148.30 L 385.30 108.20" fill="none" group-id="1,2,3" id="Path" node-id="85" stroke="#cce3ff" stroke-linecap="butt" stroke-width="6.65" target-height="40.100006" target-width="40.099976" target-x="345.2" target-y="108.2"></path><g node-id="286"><path d="M 305.00 108.20 L 305.00 148.30 L 264.80 148.30 L 264.80 108.20 Z" fill="none" group-id="1,2,3,35" id="Rectangle" node-id="86" stroke="#cce3ff" stroke-linecap="butt" stroke-width="6.65" target-height="40.100006" target-width="40.200012" target-x="264.8" target-y="108.2"></path></g><path d="M 264.80 108.20 L 305.00 148.30" fill="none" group-id="1,2,3" id="Path" node-id="87" stroke="#cce3ff" stroke-linecap="butt" stroke-width="6.65" target-height="40.100006" target-width="40.200012" target-x="264.8" target-y="108.2"></path><path d="M 264.80 148.30 L 305.00 108.20" fill="none" group-id="1,2,3" id="Path" node-id="88" stroke="#cce3ff" stroke-linecap="butt" stroke-width="6.65" target-height="40.100006" target-width="40.200012" target-x="264.8" target-y="108.2"></path><path d="M 503.20 384.00 L 502.60 387.00 L 500.90 389.50 L 498.40 391.20 L 495.40 391.80 L 492.40 391.20 L 489.80 389.50 L 488.10 387.00 L 487.50 384.00 L 488.10 380.90 L 489.80 378.40 L 492.40 376.70 L 495.40 376.10 L 498.40 376.70 L 500.90 378.40 L 502.60 380.90 L 503.20 384.00 Z" fill="#ecf6ff" fill-rule="evenodd" group-id="1,2,3" id="Oval" node-id="89" stroke="none" target-height="15.699982" target-width="15.700012" target-x="487.5" target-y="376.1"></path><path d="M 478.40 384.00 L 477.80 387.00 L 476.10 389.50 L 474.90 390.50 L 472.10 391.70 L 469.00 391.70 L 466.20 390.50 L 464.00 388.30 L 462.90 385.50 L 462.90 382.40 L 464.00 379.60 L 466.20 377.40 L 469.00 376.30 L 472.10 376.30 L 474.90 377.40 L 477.10 379.60 L 478.30 382.40 L 478.40 384.00 Z" fill="#ecf6ff" fill-rule="evenodd" group-id="1,2,3" id="Oval" node-id="90" stroke="none" target-height="15.400024" target-width="15.5" target-x="462.9" target-y="376.3"></path><path d="M 453.60 384.00 L 453.00 387.00 L 451.30 389.50 L 448.70 391.20 L 445.70 391.80 L 442.70 391.20 L 440.20 389.50 L 438.50 387.00 L 437.90 384.00 L 438.50 380.90 L 440.20 378.40 L 442.70 376.70 L 445.70 376.10 L 448.70 376.70 L 451.30 378.40 L 453.00 380.90 L 453.60 384.00 Z" fill="#ecf6ff" fill-rule="evenodd" group-id="1,2,3" id="Oval" node-id="91" stroke="none" target-height="15.699982" target-width="15.700012" target-x="437.9" target-y="376.1"></path><g node-id="287"><path d="M 424.90 329.00 L 410.70 314.70 L 424.90 300.50 L 439.20 314.70 Z" fill="#ecf6ff" fill-rule="evenodd" group-id="1,2,3,36" id="Rectangle" node-id="92" stroke="none" target-height="28.5" target-width="28.5" target-x="410.7" target-y="300.5"></path></g><g node-id="288"><path d="M 865.60 628.50 L 865.60 588.90 L 905.20 588.90 L 905.20 628.50 Z" fill="none" group-id="1,2,3,37" id="Rectangle" node-id="93" stroke="#dceeff" stroke-linecap="butt" stroke-width="6.65" target-height="39.599976" target-width="39.600037" target-x="865.6" target-y="588.9"></path></g><path d="M 865.60 628.50 L 905.20 588.90" fill="none" group-id="1,2,3" id="Path" node-id="94" stroke="#dceeff" stroke-linecap="butt" stroke-width="6.65" target-height="39.599976" target-width="39.600037" target-x="865.6" target-y="588.9"></path><path d="M 865.60 588.90 L 905.20 628.50" fill="none" group-id="1,2,3" id="Path" node-id="95" stroke="#dceeff" stroke-linecap="butt" stroke-width="6.65" target-height="39.599976" target-width="39.600037" target-x="865.6" target-y="588.9"></path><g node-id="289"><path d="M 744.80 628.50 L 744.80 588.90 L 784.40 588.90 L 784.40 628.50 Z" fill="none" group-id="1,2,3,38" id="Rectangle" node-id="96" stroke="#dceeff" stroke-linecap="butt" stroke-width="6.65" target-height="39.599976" target-width="39.600037" target-x="744.8" target-y="588.9"></path></g><path d="M 744.80 628.50 L 784.40 588.90" fill="none" group-id="1,2,3" id="Path" node-id="97" stroke="#dceeff" stroke-linecap="butt" stroke-width="6.65" target-height="39.599976" target-width="39.600037" target-x="744.8" target-y="588.9"></path><path d="M 744.80 588.90 L 784.40 628.50" fill="none" group-id="1,2,3" id="Path" node-id="98" stroke="#dceeff" stroke-linecap="butt" stroke-width="6.65" target-height="39.599976" target-width="39.600037" target-x="744.8" target-y="588.9"></path><g node-id="290"><path d="M 825.90 628.50 L 825.90 588.90 L 865.50 588.90 L 865.50 628.50 Z" fill="none" group-id="1,2,3,39" id="Rectangle" node-id="99" stroke="#dceeff" stroke-linecap="butt" stroke-width="6.65" target-height="39.599976" target-width="39.599976" target-x="825.9" target-y="588.9"></path></g><path d="M 825.90 628.50 L 865.60 588.90" fill="none" group-id="1,2,3" id="Path" node-id="100" stroke="#dceeff" stroke-linecap="butt" stroke-width="6.65" target-height="39.599976" target-width="39.69995" target-x="825.9" target-y="588.9"></path><path d="M 825.90 588.90 L 865.60 628.50" fill="none" group-id="1,2,3" id="Path" node-id="101" stroke="#dceeff" stroke-linecap="butt" stroke-width="6.65" target-height="39.599976" target-width="39.69995" target-x="825.9" target-y="588.9"></path><path d="M 851.50 366.00 L 901.50 416.00" fill="none" group-id="1,2,3" id="Path" node-id="102" stroke="#dceeff" stroke-linecap="round" stroke-width="4.75" target-height="50" target-width="50" target-x="851.5" target-y="366"></path><path d="M 851.30 365.90 L 801.00 416.20" fill="none" group-id="1,2,3" id="Path" node-id="103" stroke="#dceeff" stroke-linecap="round" stroke-width="4.75" target-height="50.30002" target-width="50.299988" target-x="801" target-y="365.9"></path><path d="M 851.30 237.50 L 851.30 366.30" fill="none" group-id="1,2,3" id="Path" node-id="104" stroke="#dceeff" stroke-linecap="round" stroke-width="4.75" target-height="128.79999" target-width="0" target-x="851.3" target-y="237.5"></path><path d="M 836.00 226.10 L 866.70 226.10 L 866.70 241.90 L 836.00 241.90 Z" fill="#cce3ff" fill-rule="evenodd" group-id="1,2,3" id="Rectangle" node-id="105" stroke="none" target-height="15.799988" target-width="30.700012" target-x="836" target-y="226.1"></path><path d="M 864.80 208.70 L 864.50 211.30 L 863.70 213.80 L 862.50 216.20 L 860.80 218.20 L 858.80 219.90 L 856.50 221.10 L 854.00 221.90 L 851.30 222.10 L 848.70 221.90 L 846.20 221.10 L 843.90 219.90 L 841.90 218.20 L 840.20 216.20 L 838.90 213.80 L 838.20 211.30 L 837.90 208.70 L 838.20 206.10 L 838.90 203.60 L 840.20 201.30 L 841.90 199.20 L 843.90 197.50 L 846.20 196.30 L 848.70 195.60 L 851.30 195.30 L 854.00 195.60 L 856.50 196.30 L 858.80 197.50 L 860.80 199.20 L 862.50 201.30 L 863.70 203.60 L 864.50 206.10 L 864.80 208.70 Z" fill="#cce3ff" fill-rule="evenodd" group-id="1,2,3" id="Oval" node-id="106" stroke="none" target-height="26.800003" target-width="26.899963" target-x="837.9" target-y="195.3"></path><path d="M 1155.20 204.10 L 1042.80 105.50" fill="none" group-id="1,2,3" id="Path" node-id="107" stroke="#dceeff" stroke-linecap="round" stroke-width="4.75" target-height="98.600006" target-width="112.3999" target-x="1042.8" target-y="105.5"></path><path d="M 850.90 192.40 L 1042.80 105.50" fill="none" group-id="1,2,3" id="Path" node-id="108" stroke="#dceeff" stroke-linecap="round" stroke-width="4.75" target-height="86.899994" target-width="191.90002" target-x="850.9" target-y="105.5"></path><path d="M 1023.00 554.90 L 1062.60 554.90 L 1062.60 594.60 L 1023.00 594.60 Z" fill="none" group-id="1,2,3" id="Rectangle" node-id="109" stroke="#dceeff" stroke-linecap="butt" stroke-width="6.65" target-height="39.69995" target-width="39.599976" target-x="1023" target-y="554.9"></path><path d="M 1023.00 554.90 L 1062.60 594.60" fill="none" group-id="1,2,3" id="Path" node-id="110" stroke="#dceeff" stroke-linecap="butt" stroke-width="6.65" target-height="39.69995" target-width="39.599976" target-x="1023" target-y="554.9"></path><path d="M 1062.60 554.90 L 1023.00 594.60" fill="none" group-id="1,2,3" id="Path" node-id="111" stroke="#dceeff" stroke-linecap="butt" stroke-width="6.65" target-height="39.69995" target-width="39.599976" target-x="1023" target-y="554.9"></path><path d="M 1023.00 475.60 L 1062.60 475.60 L 1062.60 515.20 L 1023.00 515.20 Z" fill="none" group-id="1,2,3" id="Rectangle" node-id="112" stroke="#dceeff" stroke-linecap="butt" stroke-width="6.65" target-height="39.600006" target-width="39.599976" target-x="1023" target-y="475.6"></path><path d="M 1023.00 475.60 L 1062.60 515.20" fill="none" group-id="1,2,3" id="Path" node-id="113" stroke="#dceeff" stroke-linecap="butt" stroke-width="6.65" target-height="39.600006" target-width="39.599976" target-x="1023" target-y="475.6"></path><path d="M 1062.60 475.60 L 1023.00 515.20" fill="none" group-id="1,2,3" id="Path" node-id="114" stroke="#dceeff" stroke-linecap="butt" stroke-width="6.65" target-height="39.600006" target-width="39.599976" target-x="1023" target-y="475.6"></path><path d="M 1023.00 515.20 L 1062.60 515.20 L 1062.60 554.90 L 1023.00 554.90 Z" fill="none" group-id="1,2,3" id="Rectangle" node-id="115" stroke="#dceeff" stroke-linecap="butt" stroke-width="6.65" target-height="39.700012" target-width="39.599976" target-x="1023" target-y="515.2"></path><path d="M 1023.00 515.20 L 1062.60 554.90" fill="none" group-id="1,2,3" id="Path" node-id="116" stroke="#dceeff" stroke-linecap="butt" stroke-width="6.65" target-height="39.700012" target-width="39.599976" target-x="1023" target-y="515.2"></path><path d="M 1062.60 515.20 L 1023.00 554.90" fill="none" group-id="1,2,3" id="Path" node-id="117" stroke="#dceeff" stroke-linecap="butt" stroke-width="6.65" target-height="39.700012" target-width="39.599976" target-x="1023" target-y="515.2"></path><path d="M 1012.50 228.90 L 1073.10 228.90 L 1073.10 276.40 L 1012.50 276.40 Z" fill="#cce3ff" fill-rule="evenodd" group-id="1,2,3" id="Rectangle" node-id="118" stroke="none" target-height="47.5" target-width="60.599976" target-x="1012.5" target-y="228.9"></path><path d="M 1023.00 435.90 L 1062.60 435.90 L 1062.60 475.60 L 1023.00 475.60 Z" fill="none" group-id="1,2,3" id="Rectangle" node-id="119" stroke="#dceeff" stroke-linecap="butt" stroke-width="6.65" target-height="39.700012" target-width="39.599976" target-x="1023" target-y="435.9"></path><path d="M 1023.00 435.90 L 1062.60 475.60" fill="none" group-id="1,2,3" id="Path" node-id="120" stroke="#dceeff" stroke-linecap="butt" stroke-width="6.65" target-height="39.700012" target-width="39.599976" target-x="1023" target-y="435.9"></path><path d="M 1062.60 435.90 L 1023.00 475.60" fill="none" group-id="1,2,3" id="Path" node-id="121" stroke="#dceeff" stroke-linecap="butt" stroke-width="6.65" target-height="39.700012" target-width="39.599976" target-x="1023" target-y="435.9"></path><path d="M 1023.00 356.50 L 1062.60 356.50 L 1062.60 396.20 L 1023.00 396.20 Z" fill="none" group-id="1,2,3" id="Rectangle" node-id="122" stroke="#dceeff" stroke-linecap="butt" stroke-width="6.65" target-height="39.700012" target-width="39.599976" target-x="1023" target-y="356.5"></path><path d="M 1023.00 356.50 L 1062.60 396.20" fill="none" group-id="1,2,3" id="Path" node-id="123" stroke="#dceeff" stroke-linecap="butt" stroke-width="6.65" target-height="39.700012" target-width="39.599976" target-x="1023" target-y="356.5"></path><path d="M 1062.60 356.50 L 1023.00 396.20" fill="none" group-id="1,2,3" id="Path" node-id="124" stroke="#dceeff" stroke-linecap="butt" stroke-width="6.65" target-height="39.700012" target-width="39.599976" target-x="1023" target-y="356.5"></path><path d="M 1023.00 396.20 L 1062.60 396.20 L 1062.60 435.90 L 1023.00 435.90 Z" fill="none" group-id="1,2,3" id="Rectangle" node-id="125" stroke="#dceeff" stroke-linecap="butt" stroke-width="6.65" target-height="39.69998" target-width="39.599976" target-x="1023" target-y="396.2"></path><path d="M 1023.00 396.20 L 1062.60 435.90" fill="none" group-id="1,2,3" id="Path" node-id="126" stroke="#dceeff" stroke-linecap="butt" stroke-width="6.65" target-height="39.69998" target-width="39.599976" target-x="1023" target-y="396.2"></path><path d="M 1062.60 396.20 L 1023.00 435.90" fill="none" group-id="1,2,3" id="Path" node-id="127" stroke="#dceeff" stroke-linecap="butt" stroke-width="6.65" target-height="39.69998" target-width="39.599976" target-x="1023" target-y="396.2"></path><path d="M 1023.00 316.90 L 1062.60 316.90 L 1062.60 356.50 L 1023.00 356.50 Z" fill="none" group-id="1,2,3" id="Rectangle" node-id="128" stroke="#dceeff" stroke-linecap="butt" stroke-width="6.65" target-height="39.600006" target-width="39.599976" target-x="1023" target-y="316.9"></path><path d="M 1023.00 316.90 L 1062.60 356.50" fill="none" group-id="1,2,3" id="Path" node-id="129" stroke="#dceeff" stroke-linecap="butt" stroke-width="6.65" target-height="39.600006" target-width="39.599976" target-x="1023" target-y="316.9"></path><path d="M 1062.60 316.90 L 1023.00 356.50" fill="none" group-id="1,2,3" id="Path" node-id="130" stroke="#dceeff" stroke-linecap="butt" stroke-width="6.65" target-height="39.600006" target-width="39.599976" target-x="1023" target-y="316.9"></path><path d="M 1023.00 237.50 L 1062.60 237.50 L 1062.60 277.20 L 1023.00 277.20 Z" fill="none" group-id="1,2,3" id="Rectangle" node-id="131" stroke="#cce3ff" stroke-linecap="butt" stroke-width="6.65" target-height="39.700012" target-width="39.599976" target-x="1023" target-y="237.5"></path><path d="M 1023.00 237.50 L 1062.60 277.20" fill="none" group-id="1,2,3" id="Path" node-id="132" stroke="#cce3ff" stroke-linecap="butt" stroke-width="6.65" target-height="39.700012" target-width="39.599976" target-x="1023" target-y="237.5"></path><path d="M 1062.60 237.50 L 1023.00 277.20" fill="none" group-id="1,2,3" id="Path" node-id="133" stroke="#cce3ff" stroke-linecap="butt" stroke-width="6.65" target-height="39.700012" target-width="39.599976" target-x="1023" target-y="237.5"></path><path d="M 1023.00 277.20 L 1062.60 277.20 L 1062.60 316.90 L 1023.00 316.90 Z" fill="none" group-id="1,2,3" id="Rectangle" node-id="134" stroke="#dceeff" stroke-linecap="butt" stroke-width="6.65" target-height="39.69998" target-width="39.599976" target-x="1023" target-y="277.2"></path><path d="M 1023.00 277.20 L 1062.60 316.90" fill="none" group-id="1,2,3" id="Path" node-id="135" stroke="#dceeff" stroke-linecap="butt" stroke-width="6.65" target-height="39.69998" target-width="39.599976" target-x="1023" target-y="277.2"></path><path d="M 1062.60 277.20 L 1023.00 316.90" fill="none" group-id="1,2,3" id="Path" node-id="136" stroke="#dceeff" stroke-linecap="butt" stroke-width="6.65" target-height="39.69998" target-width="39.599976" target-x="1023" target-y="277.2"></path><path d="M 962.10 594.60 L 1123.50 594.60 L 1123.50 633.40 L 962.10 633.40 Z" fill="#dceeff" fill-rule="evenodd" group-id="1,2,3" id="Rectangle" node-id="137" stroke="none" target-height="38.80005" target-width="161.40002" target-x="962.1" target-y="594.6"></path><path d="M 780.50 411.70 L 921.30 411.70 L 921.30 512.90 L 780.50 512.90 Z" fill="#dceeff" fill-rule="evenodd" group-id="1,2,3" id="Rectangle" node-id="138" stroke="none" target-height="101.20001" target-width="140.79999" target-x="780.5" target-y="411.7"></path><path d="M 995.40 254.70 L 1090.20 254.70 L 1090.20 277.00 L 995.40 277.00 Z" fill="#dceeff" fill-rule="evenodd" group-id="1,2,3" id="Rectangle" node-id="139" stroke="none" target-height="22.300003" target-width="94.79993" target-x="995.4" target-y="254.7"></path><path d="M 985.80 204.20 L 1178.40 204.20 L 1178.40 221.80 L 985.80 221.80 Z" fill="#cce3ff" fill-rule="evenodd" group-id="1,2,3" id="Rectangle" node-id="140" stroke="none" target-height="17.600006" target-width="192.60004" target-x="985.8" target-y="204.2"></path><path d="M 1088.60 194.80 L 1126.50 194.80 L 1126.50 213.00 L 1088.60 213.00 Z" fill="#dceeff" fill-rule="evenodd" group-id="1,2,3" id="Rectangle" node-id="141" stroke="none" target-height="18.199997" target-width="37.900024" target-x="1088.6" target-y="194.8"></path><path d="M 1134.40 194.80 L 1172.40 194.80 L 1172.40 213.00 L 1134.40 213.00 Z" fill="#dceeff" fill-rule="evenodd" group-id="1,2,3" id="Rectangle" node-id="142" stroke="none" target-height="18.199997" target-width="38" target-x="1134.4" target-y="194.8"></path><path d="M 1042.80 191.80 L 1042.80 105.50" fill="none" group-id="1,2,3" id="Path" node-id="143" stroke="#cce3ff" stroke-linecap="round" stroke-width="5.7" target-height="86.3" target-width="0" target-x="1042.8" target-y="105.5"></path><path d="M 1005.20 183.60 L 1042.80 105.50" fill="none" group-id="1,2,3" id="Path" node-id="144" stroke="#cce3ff" stroke-linecap="round" stroke-width="5.7" target-height="78.100006" target-width="37.600037" target-x="1005.2" target-y="105.5"></path><path d="M 1080.40 183.60 L 1042.80 105.50" fill="none" group-id="1,2,3" id="Path" node-id="145" stroke="#cce3ff" stroke-linecap="round" stroke-width="5.7" target-height="78.100006" target-width="37.599976" target-x="1042.8" target-y="105.5"></path><path d="M 1002.90 179.30 L 1082.70 179.30 L 1082.70 238.50 L 1002.90 238.50 Z" fill="#dceeff" fill-rule="evenodd" group-id="1,2,3" id="Rectangle" node-id="146" stroke="none" target-height="59.199997" target-width="79.79993" target-x="1002.9" target-y="179.3"></path><path d="M 1002.90 190.20 L 1045.10 190.20 L 1045.10 227.60 L 1002.90 227.60 Z" fill="#cce3ff" fill-rule="evenodd" group-id="1,2,3" id="Rectangle" node-id="147" stroke="none" target-height="37.40001" target-width="42.19995" target-x="1002.9" target-y="190.2"></path><path d="M 747.00 226.10 L 780.70 192.40 L 780.70 226.10 Z" fill="none" group-id="1,2,3" id="Path" node-id="148" stroke="#dceeff" stroke-linecap="butt" stroke-width="4.75" target-height="33.700012" target-width="33.700012" target-x="747" target-y="192.4"></path><g node-id="291"><path d="M 850.90 192.40 L 850.90 226.10 L 817.20 226.10 L 817.20 192.40 Z" fill="none" group-id="1,2,3,40" id="Rectangle" node-id="149" stroke="#dceeff" stroke-linecap="butt" stroke-width="4.75" target-height="33.700012" target-width="33.700012" target-x="817.2" target-y="192.4"></path></g><path d="M 850.90 192.40 L 817.20 226.10" fill="none" group-id="1,2,3" id="Path" node-id="150" stroke="#dceeff" stroke-linecap="butt" stroke-width="4.75" target-height="33.700012" target-width="33.700012" target-x="817.2" target-y="192.4"></path><path d="M 850.90 226.10 L 817.20 192.40" fill="none" group-id="1,2,3" id="Path" node-id="151" stroke="#dceeff" stroke-linecap="butt" stroke-width="4.75" target-height="33.700012" target-width="33.700012" target-x="817.2" target-y="192.4"></path><g node-id="292"><path d="M 817.20 192.40 L 817.20 226.10 L 783.50 226.10 L 783.50 192.40 Z" fill="none" group-id="1,2,3,41" id="Rectangle" node-id="152" stroke="#dceeff" stroke-linecap="butt" stroke-width="4.75" target-height="33.700012" target-width="33.700012" target-x="783.5" target-y="192.4"></path></g><path d="M 817.20 192.40 L 783.50 226.10" fill="none" group-id="1,2,3" id="Path" node-id="153" stroke="#dceeff" stroke-linecap="butt" stroke-width="4.75" target-height="33.700012" target-width="33.700012" target-x="783.5" target-y="192.4"></path><path d="M 817.20 226.10 L 783.50 192.40" fill="none" group-id="1,2,3" id="Path" node-id="154" stroke="#dceeff" stroke-linecap="butt" stroke-width="4.75" target-height="33.700012" target-width="33.700012" target-x="783.5" target-y="192.4"></path><g node-id="293"><path d="M 884.60 192.40 L 884.60 226.10 L 850.90 226.10 L 850.90 192.40 Z" fill="none" group-id="1,2,3,42" id="Rectangle" node-id="155" stroke="#dceeff" stroke-linecap="butt" stroke-width="4.75" target-height="33.700012" target-width="33.69995" target-x="850.9" target-y="192.4"></path></g><path d="M 884.60 192.40 L 850.90 226.10" fill="none" group-id="1,2,3" id="Path" node-id="156" stroke="#dceeff" stroke-linecap="butt" stroke-width="4.75" target-height="33.700012" target-width="33.69995" target-x="850.9" target-y="192.4"></path><path d="M 884.60 226.10 L 850.90 192.40" fill="none" group-id="1,2,3" id="Path" node-id="157" stroke="#dceeff" stroke-linecap="butt" stroke-width="4.75" target-height="33.700012" target-width="33.69995" target-x="850.9" target-y="192.4"></path><g node-id="294"><path d="M 952.00 192.40 L 952.00 226.10 L 918.30 226.10 L 918.30 192.40 Z" fill="none" group-id="1,2,3,43" id="Rectangle" node-id="158" stroke="#dceeff" stroke-linecap="butt" stroke-width="4.75" target-height="33.700012" target-width="33.700012" target-x="918.3" target-y="192.4"></path></g><path d="M 952.00 192.40 L 918.30 226.10" fill="none" group-id="1,2,3" id="Path" node-id="159" stroke="#dceeff" stroke-linecap="butt" stroke-width="4.75" target-height="33.700012" target-width="33.700012" target-x="918.3" target-y="192.4"></path><path d="M 952.00 226.10 L 918.30 192.40" fill="none" group-id="1,2,3" id="Path" node-id="160" stroke="#dceeff" stroke-linecap="butt" stroke-width="4.75" target-height="33.700012" target-width="33.700012" target-x="918.3" target-y="192.4"></path><g node-id="295"><path d="M 918.30 192.40 L 918.30 226.10 L 884.60 226.10 L 884.60 192.40 Z" fill="none" group-id="1,2,3,44" id="Rectangle" node-id="161" stroke="#dceeff" stroke-linecap="butt" stroke-width="4.75" target-height="33.700012" target-width="33.700012" target-x="884.6" target-y="192.4"></path></g><path d="M 918.30 192.40 L 884.60 226.10" fill="none" group-id="1,2,3" id="Path" node-id="162" stroke="#dceeff" stroke-linecap="butt" stroke-width="4.75" target-height="33.700012" target-width="33.700012" target-x="884.6" target-y="192.4"></path><path d="M 918.30 226.10 L 884.60 192.40" fill="none" group-id="1,2,3" id="Path" node-id="163" stroke="#dceeff" stroke-linecap="butt" stroke-width="4.75" target-height="33.700012" target-width="33.700012" target-x="884.6" target-y="192.4"></path><g node-id="296"><path d="M 985.80 192.40 L 985.80 226.10 L 952.00 226.10 L 952.00 192.40 Z" fill="none" group-id="1,2,3,45" id="Rectangle" node-id="164" stroke="#dceeff" stroke-linecap="butt" stroke-width="4.75" target-height="33.700012" target-width="33.799988" target-x="952" target-y="192.4"></path></g><path d="M 985.80 192.40 L 952.00 226.10" fill="none" group-id="1,2,3" id="Path" node-id="165" stroke="#dceeff" stroke-linecap="butt" stroke-width="4.75" target-height="33.700012" target-width="33.799988" target-x="952" target-y="192.4"></path><path d="M 985.80 226.10 L 952.00 192.40" fill="none" group-id="1,2,3" id="Path" node-id="166" stroke="#dceeff" stroke-linecap="butt" stroke-width="4.75" target-height="33.700012" target-width="33.799988" target-x="952" target-y="192.4"></path><g node-id="297"><path d="M 839.40 365.90 L 851.30 353.90 L 863.30 365.90 L 851.30 377.80 Z" fill="#ecf6ff" fill-rule="evenodd" group-id="1,2,3,46" id="Rectangle" node-id="167" stroke="none" target-height="23.899994" target-width="23.899963" target-x="839.4" target-y="353.9"></path></g><path d="M 780.50 491.30 L 827.80 440.90 L 871.20 488.10 L 899.60 462.80 L 921.30 486.60 L 921.30 512.90 L 780.50 512.90 Z" fill="#cce3ff" fill-rule="evenodd" group-id="1,2,3" id="Path" node-id="168" stroke="none" target-height="72.00003" target-width="140.79999" target-x="780.5" target-y="440.9"></path><path d="M 893.70 435.80 L 892.90 440.20 L 890.70 443.90 L 887.50 446.70 L 885.50 447.60 L 881.10 448.40 L 876.70 447.60 L 873.00 445.40 L 870.20 442.10 L 868.70 438.10 L 868.50 435.80 L 868.70 433.50 L 869.30 431.40 L 871.50 427.70 L 874.70 424.90 L 876.70 424.00 L 881.10 423.20 L 885.50 424.00 L 889.20 426.20 L 892.00 429.40 L 892.90 431.40 L 893.70 435.80 Z" fill="#cce3ff" fill-rule="evenodd" group-id="1,2,3" id="Oval" node-id="169" stroke="none" target-height="25.199982" target-width="25.200012" target-x="868.5" target-y="423.2"></path><path d="M 1220.00 637.60 L 10.60 637.60" fill="#ecf6ff" fill-rule="evenodd" group-id="1,2,3" id="Path" node-id="170" stroke="#dceeff" stroke-linecap="round" stroke-width="19" target-height="0" target-width="1209.4" target-x="10.6" target-y="637.6"></path></g><g node-id="255"><path d="M 1101.80 747.00 L 1085.20 747.70 L 1037.10 748.30 L 960.10 748.80 L 694.00 749.50 L 333.80 749.00 L 198.60 748.30 L 135.50 747.20 L 134.00 747.00 L 135.50 746.80 L 150.50 746.40 L 275.70 745.20 L 541.70 744.50 L 901.90 745.00 L 1037.10 745.80 L 1085.20 746.40 L 1101.80 747.00 Z" fill="#afb3c6" fill-rule="evenodd" group-id="1,2,4" id="Oval" node-id="172" stroke="none" target-height="5" target-width="967.80005" target-x="134" target-y="744.5"></path><path d="M 582.00 177.60 L 941.30 177.60 L 944.70 177.90 L 947.70 178.80 L 950.60 180.10 L 953.10 181.90 L 955.30 184.10 L 957.10 186.70 L 958.50 189.50 L 959.30 192.60 L 959.60 195.90 L 959.60 597.00 L 959.30 600.30 L 958.50 603.40 L 957.10 606.20 L 955.30 608.80 L 953.10 611.00 L 950.60 612.80 L 947.70 614.20 L 944.70 615.00 L 941.30 615.30 L 582.00 615.30 L 577.30 614.70 L 572.90 612.90 L 569.10 610.00 L 567.50 608.10 L 566.10 606.10 L 564.30 601.80 L 563.70 597.00 L 563.70 195.90 L 563.90 193.50 L 565.10 188.90 L 567.50 184.80 L 569.10 183.00 L 570.90 181.40 L 575.00 179.00 L 579.60 177.80 L 582.00 177.60 Z" fill="#9ea5b5" fill-rule="evenodd" group-id="1,2,4" id="Rectangle" node-id="173" stroke="none" target-height="437.69998" target-width="395.89996" target-x="563.7" target-y="177.6"></path><path d="M 577.00 177.60 L 946.30 177.60 L 948.70 177.80 L 951.00 178.40 L 954.90 180.80 L 957.80 184.20 L 958.80 186.30 L 959.40 188.50 L 959.60 190.90 L 959.60 214.20 L 563.70 214.20 L 563.70 190.90 L 563.90 188.50 L 564.50 186.30 L 566.80 182.30 L 570.30 179.40 L 572.30 178.40 L 574.60 177.80 L 577.00 177.60 Z" fill="#afb3c6" fill-rule="evenodd" group-id="1,2,4" id="Path" node-id="174" stroke="none" target-height="36.59999" target-width="395.89996" target-x="563.7" target-y="177.6"></path><path d="M 596.40 196.70 L 595.80 200.00 L 595.10 201.40 L 593.60 203.30 L 591.70 204.80 L 590.30 205.50 L 587.00 206.10 L 583.70 205.50 L 582.20 204.80 L 580.30 203.30 L 578.90 201.40 L 577.70 198.40 L 577.60 196.70 L 578.20 193.40 L 578.90 191.90 L 580.30 190.00 L 582.20 188.50 L 583.70 187.80 L 587.00 187.20 L 590.30 187.80 L 591.70 188.50 L 593.60 190.00 L 595.10 191.90 L 595.80 193.40 L 596.40 196.70 Z" fill="#dfe2e8" fill-rule="evenodd" group-id="1,2,4" id="Oval" node-id="175" stroke="none" target-height="18.90001" target-width="18.800049" target-x="577.6" target-y="187.2"></path><path d="M 627.20 196.70 L 626.60 200.00 L 625.90 201.40 L 624.40 203.30 L 622.50 204.80 L 621.00 205.50 L 617.70 206.10 L 614.40 205.50 L 613.00 204.80 L 611.10 203.30 L 609.60 201.40 L 608.50 198.40 L 608.30 196.70 L 608.90 193.40 L 609.60 191.90 L 611.10 190.00 L 613.00 188.50 L 614.40 187.80 L 617.70 187.20 L 621.00 187.80 L 622.50 188.50 L 624.40 190.00 L 625.90 191.90 L 626.60 193.40 L 627.20 196.70 Z" fill="#dfe2e8" fill-rule="evenodd" group-id="1,2,4" id="Oval" node-id="176" stroke="none" target-height="18.90001" target-width="18.900024" target-x="608.3" target-y="187.2"></path><path d="M 657.90 196.70 L 657.20 200.30 L 655.10 203.30 L 652.10 205.40 L 648.50 206.10 L 645.20 205.50 L 643.70 204.80 L 641.80 203.30 L 640.30 201.40 L 639.20 198.40 L 639.00 196.70 L 639.60 193.40 L 640.30 191.90 L 641.80 190.00 L 643.70 188.50 L 645.20 187.80 L 648.50 187.20 L 652.10 188.00 L 655.10 190.00 L 657.20 193.10 L 657.90 196.70 Z" fill="#dfe2e8" fill-rule="evenodd" group-id="1,2,4" id="Oval" node-id="177" stroke="none" target-height="18.90001" target-width="18.900024" target-x="639" target-y="187.2"></path><path d="M 563.70 214.20 L 959.60 214.20 L 959.60 266.40 L 563.70 266.40 Z" fill="#61697e" fill-rule="evenodd" group-id="1,2,4" id="Rectangle" node-id="178" stroke="none" target-height="52.199997" target-width="395.89996" target-x="563.7" target-y="214.2"></path><path d="M 905.90 314.70 L 892.80 314.70 L 892.80 318.20 L 905.90 318.20 L 905.90 314.70 Z M 879.60 314.70 L 866.50 314.70 L 866.50 318.20 L 879.60 318.20 L 879.60 314.70 Z M 853.40 314.70 L 840.30 314.70 L 840.30 318.20 L 853.40 318.20 L 853.40 314.70 Z M 827.20 314.70 L 814.00 314.70 L 814.00 318.20 L 827.20 318.20 L 827.20 314.70 Z M 800.90 314.70 L 787.80 314.70 L 787.80 318.20 L 800.90 318.20 L 800.90 314.70 Z M 774.70 314.70 L 761.60 314.70 L 761.60 318.20 L 774.70 318.20 L 774.70 314.70 Z M 748.40 314.70 L 735.30 314.70 L 735.30 318.20 L 748.40 318.20 L 748.40 314.70 Z M 722.20 314.70 L 709.10 314.70 L 709.10 318.20 L 722.20 318.20 L 722.20 314.70 Z M 696.00 314.70 L 682.80 314.70 L 682.80 318.20 L 696.00 318.20 L 696.00 314.70 Z M 669.70 314.70 L 656.60 314.70 L 656.60 318.20 L 669.70 318.20 L 669.70 314.70 Z M 643.50 314.70 L 630.40 314.70 L 630.40 318.20 L 643.50 318.20 L 643.50 314.70 Z M 617.20 314.70 L 604.10 314.70 L 604.10 318.20 L 617.20 318.20 L 617.20 314.70 Z M 591.00 314.70 L 587.00 314.70 L 587.00 323.80 L 590.40 323.80 L 590.40 318.20 L 591.00 318.20 L 591.00 314.70 Z M 590.40 336.90 L 587.00 336.90 L 587.00 350.10 L 590.40 350.10 L 590.40 336.90 Z M 590.40 363.20 L 587.00 363.20 L 587.00 367.00 L 596.30 367.00 L 596.30 363.50 L 590.40 363.50 L 590.40 363.20 Z M 622.60 363.50 L 609.40 363.50 L 609.40 367.00 L 622.60 367.00 L 622.60 363.50 Z M 648.80 363.50 L 635.70 363.50 L 635.70 367.00 L 648.80 367.00 L 648.80 363.50 Z M 675.00 363.50 L 661.90 363.50 L 661.90 367.00 L 675.00 367.00 L 675.00 363.50 Z M 701.30 363.50 L 688.20 363.50 L 688.20 367.00 L 701.30 367.00 L 701.30 363.50 Z M 727.50 363.50 L 714.40 363.50 L 714.40 367.00 L 727.50 367.00 L 727.50 363.50 Z M 753.80 363.50 L 740.60 363.50 L 740.60 367.00 L 753.80 367.00 L 753.80 363.50 Z M 780.00 363.50 L 766.90 363.50 L 766.90 367.00 L 780.00 367.00 L 780.00 363.50 Z M 806.20 363.50 L 793.10 363.50 L 793.10 367.00 L 806.20 367.00 L 806.20 363.50 Z M 832.50 363.50 L 819.40 363.50 L 819.40 367.00 L 832.50 367.00 L 832.50 363.50 Z M 858.70 363.50 L 845.60 363.50 L 845.60 367.00 L 858.70 367.00 L 858.70 363.50 Z M 885.00 363.50 L 871.80 363.50 L 871.80 367.00 L 885.00 367.00 L 885.00 363.50 Z M 911.20 363.50 L 898.10 363.50 L 898.10 367.00 L 911.20 367.00 L 911.20 363.50 Z M 932.10 361.60 L 928.70 361.60 L 928.70 363.50 L 924.30 363.50 L 924.30 367.00 L 932.10 367.00 L 932.10 361.60 Z M 932.10 335.40 L 928.70 335.40 L 928.70 348.50 L 932.10 348.50 L 932.10 335.40 Z M 932.10 314.70 L 919.00 314.70 L 919.00 318.10 L 928.70 318.10 L 928.70 322.30 L 932.10 322.30 L 932.10 314.70 Z" fill="#fcfcfc" fill-rule="nonzero" group-id="1,2,4" id="Shape" node-id="179" stroke="none" target-height="52.299988" target-width="345.09998" target-x="587" target-y="314.7"></path><path d="M 905.90 420.40 L 892.80 420.40 L 892.80 423.80 L 905.90 423.80 L 905.90 420.40 Z M 879.60 420.40 L 866.50 420.40 L 866.50 423.80 L 879.60 423.80 L 879.60 420.40 Z M 853.40 420.40 L 840.30 420.40 L 840.30 423.80 L 853.40 423.80 L 853.40 420.40 Z M 827.20 420.40 L 814.00 420.40 L 814.00 423.80 L 827.20 423.80 L 827.20 420.40 Z M 800.90 420.40 L 787.80 420.40 L 787.80 423.80 L 800.90 423.80 L 800.90 420.40 Z M 774.70 420.40 L 761.60 420.40 L 761.60 423.80 L 774.70 423.80 L 774.70 420.40 Z M 748.40 420.40 L 735.30 420.40 L 735.30 423.80 L 748.40 423.80 L 748.40 420.40 Z M 722.20 420.40 L 709.10 420.40 L 709.10 423.80 L 722.20 423.80 L 722.20 420.40 Z M 696.00 420.40 L 682.80 420.40 L 682.80 423.80 L 696.00 423.80 L 696.00 420.40 Z M 669.70 420.40 L 656.60 420.40 L 656.60 423.80 L 669.70 423.80 L 669.70 420.40 Z M 643.50 420.40 L 630.40 420.40 L 630.40 423.80 L 643.50 423.80 L 643.50 420.40 Z M 617.20 420.40 L 604.10 420.40 L 604.10 423.80 L 617.20 423.80 L 617.20 420.40 Z M 591.00 420.40 L 587.00 420.40 L 587.00 429.50 L 590.40 429.50 L 590.40 423.80 L 591.00 423.80 L 591.00 420.40 Z M 590.40 442.60 L 587.00 442.60 L 587.00 455.70 L 590.40 455.70 L 590.40 442.60 Z M 590.40 468.80 L 587.00 468.80 L 587.00 472.60 L 596.30 472.60 L 596.30 469.20 L 590.40 469.20 L 590.40 468.80 Z M 622.60 469.20 L 609.40 469.20 L 609.40 472.60 L 622.60 472.60 L 622.60 469.20 Z M 648.80 469.20 L 635.70 469.20 L 635.70 472.60 L 648.80 472.60 L 648.80 469.20 Z M 675.00 469.20 L 661.90 469.20 L 661.90 472.60 L 675.00 472.60 L 675.00 469.20 Z M 701.30 469.20 L 688.20 469.20 L 688.20 472.60 L 701.30 472.60 L 701.30 469.20 Z M 727.50 469.20 L 714.40 469.20 L 714.40 472.60 L 727.50 472.60 L 727.50 469.20 Z M 753.80 469.20 L 740.60 469.20 L 740.60 472.60 L 753.80 472.60 L 753.80 469.20 Z M 780.00 469.20 L 766.90 469.20 L 766.90 472.60 L 780.00 472.60 L 780.00 469.20 Z M 806.20 469.20 L 793.10 469.20 L 793.10 472.60 L 806.20 472.60 L 806.20 469.20 Z M 832.50 469.20 L 819.40 469.20 L 819.40 472.60 L 832.50 472.60 L 832.50 469.20 Z M 858.70 469.20 L 845.60 469.20 L 845.60 472.60 L 858.70 472.60 L 858.70 469.20 Z M 885.00 469.20 L 871.80 469.20 L 871.80 472.60 L 885.00 472.60 L 885.00 469.20 Z M 911.20 469.20 L 898.10 469.20 L 898.10 472.60 L 911.20 472.60 L 911.20 469.20 Z M 932.10 467.30 L 928.70 467.30 L 928.70 469.20 L 924.30 469.20 L 924.30 472.60 L 932.10 472.60 L 932.10 467.30 Z M 932.10 441.00 L 928.70 441.00 L 928.70 454.20 L 932.10 454.20 L 932.10 441.00 Z M 932.10 420.30 L 919.00 420.30 L 919.00 423.80 L 928.70 423.80 L 928.70 427.90 L 932.10 427.90 L 932.10 420.30 Z" fill="#fcfcfc" fill-rule="nonzero" group-id="1,2,4" id="Shape" node-id="180" stroke="none" target-height="52.30002" target-width="345.09998" target-x="587" target-y="420.3"></path><path d="M 587.00 291.00 L 734.00 291.00" fill="none" group-id="1,2,4" id="Path" node-id="181" stroke="#fcfcfc" stroke-dasharray="28.5 28.5" stroke-linecap="butt" stroke-width="10.45" target-height="0" target-width="147" target-x="587" target-y="291"></path><path d="M 587.00 394.80 L 734.00 394.80" fill="none" group-id="1,2,4" id="Path" node-id="182" stroke="#fcfcfc" stroke-dasharray="28.5 28.5" stroke-linecap="butt" stroke-width="10.45" target-height="0" target-width="147" target-x="587" target-y="394.8"></path><path d="M 608.30 240.30 L 608.10 242.90 L 607.40 245.30 L 606.40 247.50 L 605.00 249.50 L 603.30 251.20 L 601.30 252.60 L 599.10 253.60 L 596.70 254.30 L 594.10 254.50 L 591.50 254.30 L 589.10 253.60 L 586.90 252.60 L 584.90 251.20 L 583.20 249.50 L 581.80 247.50 L 580.70 245.30 L 580.10 242.90 L 579.80 240.30 L 580.10 237.70 L 580.70 235.30 L 581.80 233.10 L 583.20 231.10 L 584.90 229.40 L 586.90 228.00 L 589.10 226.90 L 591.50 226.30 L 594.10 226.10 L 596.70 226.30 L 599.10 226.90 L 601.30 228.00 L 603.30 229.40 L 605.00 231.10 L 606.40 233.10 L 607.40 235.30 L 608.10 237.70 L 608.30 240.30 Z" fill="#ffffff" fill-rule="evenodd" group-id="1,2,4" id="Oval" node-id="183" stroke="none" target-height="28.399994" target-width="28.5" target-x="579.8" target-y="226.1"></path><path d="M 624.40 231.70 L 691.50 231.70 L 691.50 248.90 L 624.40 248.90 Z" fill="#ffffff" fill-rule="evenodd" group-id="1,2,4" id="Rectangle" node-id="184" stroke="none" target-height="17.199997" target-width="67.099976" target-x="624.4" target-y="231.7"></path><path d="M 942.50 230.40 L 914.40 230.40" fill="none" group-id="1,2,4" id="Path" node-id="185" stroke="#ffffff" stroke-linecap="butt" stroke-width="4.75" target-height="0" target-width="28.099976" target-x="914.4" target-y="230.4"></path><path d="M 942.50 239.30 L 914.40 239.30" fill="none" group-id="1,2,4" id="Path" node-id="186" stroke="#ffffff" stroke-linecap="butt" stroke-width="4.75" target-height="0" target-width="28.099976" target-x="914.4" target-y="239.3"></path><path d="M 942.50 248.20 L 914.40 248.20" fill="none" group-id="1,2,4" id="Path" node-id="187" stroke="#ffffff" stroke-linecap="butt" stroke-width="4.75" target-height="0" target-width="28.099976" target-x="914.4" target-y="248.2"></path><path d="M 736.50 670.80 L 840.80 670.80" fill="none" group-id="1,2,4" id="Path" node-id="188" stroke="#3c3c42" stroke-linecap="butt" stroke-width="11.4" target-height="0" target-width="104.29999" target-x="736.5" target-y="670.8"></path><path d="M 726.90 746.50 L 748.60 576.50" fill="none" group-id="1,2,4" id="Path" node-id="189" stroke="#878a93" stroke-linecap="butt" stroke-width="11.4" target-height="170" target-width="21.699951" target-x="726.9" target-y="576.5"></path><path d="M 754.60 746.50 L 776.40 576.50" fill="none" group-id="1,2,4" id="Path" node-id="190" stroke="#3c3c42" stroke-linecap="butt" stroke-width="11.4" target-height="170" target-width="21.800049" target-x="754.6" target-y="576.5"></path><path d="M 850.80 746.50 L 829.10 576.50" fill="none" group-id="1,2,4" id="Path" node-id="191" stroke="#3c3c42" stroke-linecap="butt" stroke-width="11.4" target-height="170" target-width="21.700012" target-x="829.1" target-y="576.5"></path><path d="M 823.10 746.50 L 801.30 576.50" fill="none" group-id="1,2,4" id="Path" node-id="192" stroke="#878a93" stroke-linecap="butt" stroke-width="11.4" target-height="170" target-width="21.799988" target-x="801.3" target-y="576.5"></path><path d="M 736.90 560.90 L 845.20 560.90 L 847.40 561.20 L 849.40 562.10 L 851.10 563.30 L 852.40 565.00 L 853.20 567.00 L 853.50 569.20 L 853.50 579.60 L 728.60 579.60 L 728.60 569.20 L 728.90 567.00 L 729.70 565.00 L 731.00 563.30 L 732.70 562.10 L 734.60 561.20 L 736.90 560.90 Z" fill="#3c3c42" fill-rule="evenodd" group-id="1,2,4" id="Path" node-id="193" stroke="none" target-height="18.699951" target-width="124.900024" target-x="728.6" target-y="560.9"></path><path d="M 736.90 560.90 L 809.20 560.90 L 811.50 561.20 L 813.40 562.10 L 815.10 563.30 L 816.40 565.00 L 817.20 567.00 L 817.50 569.20 L 817.50 579.60 L 728.60 579.60 L 728.60 569.20 L 728.90 567.00 L 729.70 565.00 L 731.00 563.30 L 732.70 562.10 L 734.60 561.20 L 736.90 560.90 Z" fill="#878a93" fill-rule="evenodd" group-id="1,2,4" id="Path" node-id="194" stroke="none" target-height="18.699951" target-width="88.900024" target-x="728.6" target-y="560.9"></path><path d="M 632.50 504.20 L 938.60 504.20 L 938.60 558.80 L 632.50 558.80 Z" fill="#ffffff" fill-rule="evenodd" group-id="1,2,4" id="Rectangle" node-id="195" stroke="#505463" stroke-linecap="butt" stroke-width="5.7" target-height="54.599976" target-width="306.09998" target-x="632.5" target-y="504.2"></path><path d="M 667.50 449.60 L 973.60 449.60 L 973.60 504.20 L 667.50 504.20 Z" fill="#ffffff" fill-rule="evenodd" group-id="1,2,4" id="Rectangle" node-id="196" stroke="#505463" stroke-linecap="butt" stroke-width="5.7" target-height="54.600006" target-width="306.09998" target-x="667.5" target-y="449.6"></path><path d="M 684.40 462.90 L 684.40 491.00" fill="none" group-id="1,2,4" id="Path" node-id="197" stroke="#505463" stroke-linecap="butt" stroke-width="5.7" target-height="28.100006" target-width="0" target-x="684.4" target-y="462.9"></path><path d="M 650.40 517.50 L 650.40 545.60" fill="none" group-id="1,2,4" id="Path" node-id="198" stroke="#505463" stroke-linecap="butt" stroke-width="5.7" target-height="28.099976" target-width="0" target-x="650.4" target-y="517.5"></path><path d="M 417.80 469.70 L 417.80 472.40 L 417.40 474.50 L 416.60 476.20 L 415.40 477.80 L 413.80 479.00 L 411.90 480.10 L 408.70 481.10 L 404.90 481.80 L 401.10 482.00 L 397.70 481.60 L 395.60 481.10 L 393.80 480.20 L 392.30 479.00 L 391.10 477.40 L 390.30 475.50 L 389.70 472.90 L 389.60 469.70 L 389.90 465.90 L 390.70 462.10 L 392.80 455.90 L 395.30 452.10 L 396.90 450.60 L 398.60 449.70 L 400.40 449.20 L 402.30 449.30 L 404.20 449.80 L 406.30 450.90 L 409.00 453.10 L 411.70 456.10 L 413.90 459.50 L 415.80 463.00 L 417.10 466.60 L 417.80 469.70 Z" fill="#cf3e83" fill-rule="evenodd" group-id="1,2,4" id="Path" node-id="199" stroke="none" target-height="32.799988" target-width="28.199982" target-x="389.6" target-y="449.2"></path><path d="M 408.20 468.80 L 408.20 473.00 L 411.90 473.30 L 415.40 474.20 L 418.60 475.70 L 421.50 477.70 L 424.00 480.00 L 426.20 482.90 L 427.80 486.00 L 428.90 489.40 L 429.40 493.10 L 429.30 496.80 L 428.60 500.30 L 427.30 503.60 L 425.50 506.60 L 423.30 509.30 L 420.60 511.50 L 417.50 513.40 L 414.20 514.60 L 410.60 515.40 L 408.20 515.50 L 404.40 515.20 L 401.00 514.30 L 397.80 512.80 L 394.90 510.80 L 392.40 508.40 L 390.20 505.60 L 388.60 502.50 L 387.50 499.10 L 387.00 495.40 L 387.10 491.70 L 387.80 488.20 L 389.10 484.90 L 390.90 481.90 L 393.10 479.30 L 395.80 477.00 L 398.80 475.10 L 402.10 473.90 L 405.80 473.10 L 408.20 473.00 L 408.20 468.80 Z M 408.20 468.80 L 402.00 469.60 L 398.90 470.60 L 396.00 471.90 L 393.40 473.60 L 388.70 477.80 L 385.30 483.10 L 384.10 486.00 L 383.20 489.10 L 382.80 492.30 L 382.80 495.70 L 383.20 499.00 L 384.00 502.20 L 385.10 505.10 L 386.70 507.90 L 390.70 512.70 L 395.70 516.40 L 398.60 517.80 L 401.60 518.80 L 404.80 519.40 L 408.20 519.70 L 414.30 518.90 L 417.40 517.90 L 420.30 516.60 L 423.00 514.90 L 427.60 510.70 L 431.00 505.40 L 432.20 502.50 L 433.10 499.50 L 433.50 496.20 L 433.50 492.90 L 433.10 489.50 L 432.30 486.40 L 431.20 483.40 L 429.70 480.70 L 425.70 475.80 L 420.60 472.10 L 417.80 470.70 L 414.80 469.70 L 411.60 469.10 L 408.20 468.80 Z" fill="#878a93" fill-rule="nonzero" group-id="1,2,4" id="Shape" node-id="200" stroke="none" target-height="50.900024" target-width="50.700012" target-x="382.8" target-y="468.8"></path><g node-id="298"><path d="M 383.00 497.00 L 433.50 491.30 L 440.00 549.90 L 389.50 555.50 Z" fill="#878a93" fill-rule="evenodd" group-id="1,2,4,47" id="Rectangle" node-id="201" stroke="none" target-height="64.20001" target-width="57" target-x="383" target-y="491.3"></path></g><g node-id="299"><path d="M 413.90 493.50 L 433.50 491.30 L 440.10 549.90 L 420.50 552.10 Z" fill="#66666b" fill-rule="evenodd" group-id="1,2,4,48" id="Rectangle" node-id="202" stroke="none" target-height="60.799988" target-width="26.200012" target-x="413.9" target-y="491.3"></path></g><g node-id="300"><path d="M 388.90 496.30 L 396.80 495.50 L 399.70 521.50 L 399.60 523.10 L 398.90 524.40 L 397.70 525.40 L 396.20 525.90 L 394.60 525.80 L 393.20 525.00 L 392.30 523.90 L 391.80 522.40 L 388.90 496.30 Z" fill="#ffc000" fill-rule="evenodd" group-id="1,2,4,49" id="Path" node-id="203" stroke="none" target-height="30.400024" target-width="10.800018" target-x="388.9" target-y="495.5"></path></g><g node-id="301"><path d="M 419.20 492.90 L 427.20 492.00 L 429.50 512.80 L 429.40 514.30 L 428.70 515.70 L 427.50 516.70 L 426.00 517.20 L 424.40 517.00 L 423.00 516.30 L 422.10 515.20 L 421.60 513.60 L 419.20 492.90 Z" fill="#ffc000" fill-rule="evenodd" group-id="1,2,4,50" id="Path" node-id="204" stroke="none" target-height="25.200012" target-width="10.299988" target-x="419.2" target-y="492"></path></g><g node-id="302"><path d="M 401.30 494.90 L 409.20 494.00 L 410.90 508.80 L 410.80 510.40 L 410.00 511.70 L 408.90 512.70 L 407.40 513.20 L 405.80 513.00 L 404.40 512.30 L 403.40 511.20 L 403.00 509.70 L 401.30 494.90 Z" fill="#ffc000" fill-rule="evenodd" group-id="1,2,4,51" id="Path" node-id="205" stroke="none" target-height="19.200012" target-width="9.600006" target-x="401.3" target-y="494"></path></g><path d="M 401.30 495.00 L 402.50 505.90 L 401.60 504.40 L 400.00 503.90 L 398.40 504.70 L 398.00 506.40 L 396.70 495.50 L 401.30 495.00 Z" fill="#ffc000" fill-rule="evenodd" group-id="1,2,4" id="Path" node-id="206" stroke="none" target-height="11.399994" target-width="5.799988" target-x="396.7" target-y="495"></path><path d="M 416.50 471.00 L 416.50 473.20 L 416.10 475.00 L 415.40 476.60 L 414.30 477.90 L 411.10 479.90 L 408.20 480.90 L 404.70 481.50 L 401.20 481.70 L 398.10 481.40 L 394.60 480.10 L 393.20 479.10 L 392.20 477.70 L 391.40 476.00 L 390.90 473.90 L 391.20 469.50 L 392.00 467.50 L 394.40 463.90 L 397.90 461.40 L 402.30 460.10 L 406.90 460.30 L 410.90 462.00 L 414.10 464.90 L 415.30 466.80 L 416.50 471.00 Z" fill="#cf3e83" fill-rule="evenodd" group-id="1,2,4" id="Path" node-id="207" stroke="none" target-height="21.600006" target-width="25.600006" target-x="390.9" target-y="460.1"></path><path d="M 412.40 458.70 L 418.60 466.40 L 420.50 470.10 L 420.50 472.20 L 419.80 473.10 L 415.80 475.00 L 407.50 477.20 L 401.00 478.30 L 401.80 474.80 L 403.00 472.50 L 405.40 469.70 L 409.20 467.10 L 411.90 466.20 L 415.20 465.60" fill="#cf3e83" fill-rule="evenodd" group-id="1,2,4" id="Path" node-id="208" stroke="none" target-height="19.599976" target-width="19.5" target-x="401" target-y="458.7"></path><path d="M 400.60 348.50 L 401.70 400.20 L 412.00 460.10 L 390.30 461.10 L 376.30 348.50 Z" fill="#cf3e83" fill-rule="evenodd" group-id="1,2,4" id="Path" node-id="209" stroke="none" target-height="112.600006" target-width="35.700012" target-x="376.3" target-y="348.5"></path><path d="M 284.40 451.30 L 288.80 453.30 L 295.60 455.20 L 299.40 455.50 L 304.70 455.00 L 307.30 454.10 L 309.60 452.80 L 311.90 450.90 L 314.10 448.30 L 315.30 446.10 L 317.50 440.20 L 318.40 436.30 L 318.90 431.80 L 318.70 428.80 L 318.20 426.90 L 317.50 425.60 L 315.60 424.30 L 314.30 424.20 L 310.40 425.10 L 304.40 428.60 L 296.90 434.40 L 286.30 444.50" fill="#e576c6" fill-rule="evenodd" group-id="1,2,4" id="Path" node-id="210" stroke="none" target-height="31.299988" target-width="34.5" target-x="284.4" target-y="424.2"></path><path d="M 437.40 706.20 L 442.00 720.50 L 451.60 716.90 L 461.40 713.80 L 472.70 711.10 L 478.50 710.30 L 484.10 709.90 L 487.80 710.00 L 494.10 711.00 L 434.80 746.50 L 418.70 707.40 L 437.40 706.20 Z" fill="#0d0b6d" fill-rule="evenodd" group-id="1,2,4" id="Path" node-id="211" stroke="none" target-height="40.299988" target-width="75.399994" target-x="418.7" target-y="706.2"></path><path d="M 262.50 667.60 L 243.40 685.70 L 248.80 739.50 L 214.60 681.10 L 255.60 649.70 Z" fill="#0d0b6d" fill-rule="evenodd" group-id="1,2,4" id="Path" node-id="212" stroke="none" target-height="89.79999" target-width="47.899994" target-x="214.6" target-y="649.7"></path><path d="M 371.50 202.70 L 374.60 206.20 L 378.20 211.60 L 380.50 217.20 L 381.00 221.90 L 380.70 224.20 L 379.80 226.50 L 378.30 228.80 L 376.30 230.80 L 373.50 232.90 L 369.60 234.90" fill="#0d0b6d" fill-rule="evenodd" group-id="1,2,4" id="Path" node-id="213" stroke="none" target-height="32.199997" target-width="11.399994" target-x="369.6" target-y="202.7"></path><path d="M 419.70 710.50 L 426.80 727.10 L 442.00 720.50 L 438.20 708.60 Z" fill="#cf3e83" fill-rule="evenodd" group-id="1,2,4" id="Path" node-id="214" stroke="none" target-height="18.5" target-width="22.299988" target-x="419.7" target-y="708.6"></path><path d="M 255.30 649.70 L 231.70 668.10 L 243.40 685.70 L 257.70 672.20 Z" fill="#cf3e83" fill-rule="evenodd" group-id="1,2,4" id="Path" node-id="215" stroke="none" target-height="36" target-width="26.000015" target-x="231.7" target-y="649.7"></path><path d="M 344.20 411.00 L 343.70 422.00 L 342.80 432.80 L 341.50 443.50 L 339.70 453.90 L 335.00 474.50 L 329.00 494.30 L 324.30 507.20 L 319.30 519.60 L 313.90 531.50 L 308.10 543.20 L 296.20 564.80 L 289.90 575.10 L 277.80 593.60 L 268.60 606.30 L 252.20 627.00 L 245.60 634.80 L 231.70 649.70 L 255.90 685.30 L 267.60 674.00 L 277.50 663.70 L 288.40 651.90 L 302.80 635.50 L 318.10 617.40 L 336.50 594.50 L 343.30 585.50 L 355.20 567.80 L 360.40 559.10 L 366.80 547.10 L 372.40 535.50 L 377.30 524.20 L 381.70 512.70 L 385.40 501.80 L 388.40 491.30 L 393.30 470.70 L 394.90 461.40 L 396.80 447.80 L 398.00 436.00 L 398.50 425.00 L 398.50 408.50 L 397.90 399.00 L 344.20 411.00 Z" fill="#101016" fill-rule="evenodd" group-id="1,2,4" id="Path" node-id="216" stroke="none" target-height="286.3" target-width="166.8" target-x="231.7" target-y="399"></path><path d="M 376.20 404.10 L 445.20 711.90 L 408.80 721.70 L 315.90 417.40 Z" fill="#3c3c42" fill-rule="evenodd" group-id="1,2,4" id="Path" node-id="217" stroke="none" target-height="317.6" target-width="129.30002" target-x="315.9" target-y="404.1"></path><path d="M 381.50 353.50 L 404.30 353.50 L 403.40 346.50 L 400.80 335.70 L 398.50 329.20 L 394.50 320.50 L 391.80 316.00 L 388.80 311.80 L 385.40 307.80 L 381.40 303.90 L 374.60 299.00 L 366.30 295.10 L 362.00 293.70 L 357.10 292.60 L 351.80 291.90 L 345.90 291.70" fill="#ea9421" fill-rule="evenodd" group-id="1,2,4" id="Path" node-id="218" stroke="none" target-height="61.799988" target-width="58.399994" target-x="345.9" target-y="291.7"></path><path d="M 397.90 399.00 L 315.90 417.40 L 296.60 359.30 L 252.30 341.80 L 256.10 333.60 L 260.00 326.70 L 263.90 320.80 L 268.20 315.10 L 272.40 310.40 L 276.60 306.50 L 281.00 302.90 L 285.20 299.90 L 293.50 295.60 L 300.90 292.90 L 306.30 291.70 L 314.50 290.90 L 319.50 291.20 L 350.10 291.60 L 358.50 292.60 L 361.30 293.70 L 367.00 296.60 L 370.30 298.80 L 374.10 301.80 L 379.00 306.80 L 381.40 310.00 L 386.10 317.70 L 390.00 327.10 L 391.50 332.30 L 393.20 341.50 L 393.70 350.30 L 397.90 399.00 Z" fill="#ffc000" fill-rule="evenodd" group-id="1,2,4" id="Path" node-id="219" stroke="none" target-height="126.5" target-width="145.59999" target-x="252.3" target-y="290.9"></path><path d="M 397.90 399.00 L 315.90 417.40 L 301.30 373.30 L 304.40 371.20 L 307.30 368.50 L 310.10 365.10 L 312.40 361.40 L 314.40 357.10 L 316.10 352.20 L 317.30 347.20 L 318.10 341.90 L 318.40 336.10 L 318.10 330.70 L 317.40 325.60 L 316.40 320.80 L 314.90 316.20 L 313.00 312.10 L 310.90 308.40 L 308.40 305.00 L 305.80 302.20 L 302.90 300.00 L 300.50 298.60 L 295.60 297.10 L 293.10 296.90 L 290.20 297.10 L 296.50 294.10 L 300.70 293.20 L 304.00 293.80 L 306.30 294.60 L 313.50 298.30 L 318.40 301.60 L 326.10 307.40 L 338.50 317.90 L 346.40 325.60 L 352.30 331.90 L 357.30 337.70 L 362.80 345.20 L 363.30 335.40 L 363.40 325.60 L 362.90 314.80 L 362.30 309.40 L 360.70 301.30 L 358.70 296.30 L 357.40 294.20 L 355.90 292.80 L 354.30 291.90 L 360.00 293.20 L 366.20 295.90 L 372.20 300.10 L 375.10 302.60 L 381.50 310.00 L 386.20 317.60 L 390.20 327.00 L 391.70 332.20 L 393.40 341.40 L 393.80 350.30 L 397.90 399.00 Z" fill="#ea5911" fill-rule="evenodd" group-id="1,2,4" id="Path" node-id="220" stroke="none" target-height="125.5" target-width="107.69998" target-x="290.2" target-y="291.9"></path><g node-id="303"><path d="M 211.10 387.40 L 372.00 401.30 L 375.20 401.80 L 378.30 402.70 L 381.10 404.00 L 383.80 405.60 L 386.10 407.50 L 390.10 412.20 L 392.70 417.80 L 393.50 420.80 L 393.90 424.00 L 393.80 427.30 L 393.30 430.60 L 392.40 433.60 L 391.10 436.40 L 387.60 441.50 L 382.90 445.40 L 380.20 446.90 L 377.30 448.10 L 374.30 448.80 L 371.10 449.20 L 367.80 449.10 L 207.00 435.20 L 203.70 434.70 L 200.70 433.80 L 197.80 432.50 L 192.80 429.00 L 188.90 424.30 L 187.40 421.60 L 186.20 418.70 L 185.40 415.70 L 185.10 412.50 L 185.10 409.20 L 185.60 405.90 L 186.50 402.90 L 187.80 400.10 L 189.50 397.40 L 191.40 395.00 L 196.10 391.10 L 201.70 388.40 L 204.70 387.70 L 207.80 387.30 L 211.10 387.40 Z" fill="#405fd3" fill-rule="evenodd" group-id="1,2,4,52" id="Rectangle" node-id="221" stroke="none" target-height="61.900024" target-width="208.79999" target-x="185.1" target-y="387.3"></path></g><path d="M 395.00 365.30 L 317.50 372.50" fill="none" group-id="1,2,4" id="Path" node-id="222" stroke="#ffffff" stroke-linecap="butt" stroke-width="11.4" target-height="7.200012" target-width="77.5" target-x="317.5" target-y="365.3"></path><path d="M 396.30 381.00 L 326.00 387.30" fill="none" group-id="1,2,4" id="Path" node-id="223" stroke="#ffffff" stroke-linecap="butt" stroke-width="11.4" target-height="6.299988" target-width="70.29999" target-x="326" target-y="381"></path><path d="M 297.40 363.10 L 313.90 343.40 L 309.00 378.00 Z" fill="#db8b21" fill-rule="evenodd" group-id="1,2,4" id="Path" node-id="224" stroke="none" target-height="34.600006" target-width="16.5" target-x="297.4" target-y="343.4"></path><g node-id="304"><path d="M 207.40 350.80 L 368.20 364.80 L 371.50 365.30 L 374.50 366.20 L 377.40 367.40 L 380.00 369.10 L 382.40 371.00 L 386.30 375.70 L 389.00 381.30 L 389.80 384.30 L 390.10 387.40 L 390.10 390.80 L 389.60 394.00 L 388.70 397.10 L 387.40 399.90 L 383.80 404.90 L 379.10 408.90 L 376.40 410.40 L 373.50 411.50 L 370.50 412.30 L 367.40 412.70 L 364.10 412.60 L 203.20 398.70 L 200.00 398.20 L 196.90 397.30 L 194.10 396.00 L 189.00 392.40 L 185.10 387.70 L 183.60 385.10 L 182.50 382.20 L 181.70 379.10 L 181.30 376.00 L 181.40 372.70 L 181.90 369.40 L 182.80 366.40 L 184.10 363.50 L 185.70 360.90 L 187.60 358.50 L 192.30 354.50 L 197.90 351.90 L 200.90 351.10 L 204.10 350.80 L 207.40 350.80 Z" fill="#367ee8" fill-rule="evenodd" group-id="1,2,4,53" id="Rectangle" node-id="225" stroke="none" target-height="61.900024" target-width="208.8" target-x="181.3" target-y="350.8"></path></g><path d="M 240.60 387.60 L 240.40 391.40 L 240.80 395.30 L 241.80 399.40 L 245.30 407.50 L 247.70 411.70 L 251.70 417.70 L 261.20 429.30 L 266.00 434.40 L 275.10 443.20 L 284.40 451.30 L 299.70 442.60 L 274.10 394.90 L 293.50 358.00 L 255.70 343.10 L 251.20 352.70 L 245.10 368.70 L 241.70 381.30 L 240.60 387.60 Z" fill="#e576c6" fill-rule="evenodd" group-id="1,2,4" id="Path" node-id="226" stroke="none" target-height="108.19998" target-width="59.30002" target-x="240.4" target-y="343.1"></path><path d="M 311.60 244.70 L 309.80 242.80 L 308.40 241.80 L 305.90 240.70 L 302.90 240.00 L 299.90 239.70 L 296.80 239.90 L 293.10 241.20 L 291.60 242.40 L 290.30 243.80 L 289.30 245.80 L 288.60 248.20 L 288.40 251.00 L 288.80 253.40 L 289.70 255.60 L 292.70 259.40 L 294.70 261.00 L 298.00 263.10 L 305.40 266.20 L 308.90 267.20 L 316.80 268.80 L 316.50 290.90 L 311.30 291.30 L 317.70 296.30 L 325.00 300.50 L 329.30 302.40 L 334.10 304.00 L 341.00 305.30 L 344.60 305.50 L 348.30 305.20 L 350.80 304.70 L 352.40 304.00 L 353.70 302.90 L 354.50 301.80 L 354.80 300.50 L 354.70 298.50 L 354.00 296.50 L 350.80 291.60 L 345.80 291.40 L 345.50 271.00 L 354.40 270.90 L 366.70 270.00 L 373.80 268.70 L 376.00 267.80 L 376.20 250.90 L 375.30 238.40 L 374.40 232.00 L 373.00 225.80 L 371.20 220.10 L 346.00 203.60 L 310.60 211.70 L 311.60 244.70 Z" fill="#e576c6" fill-rule="evenodd" group-id="1,2,4" id="Path" node-id="227" stroke="none" target-height="101.899994" target-width="87.80002" target-x="288.4" target-y="203.6"></path><path d="M 320.10 224.90 L 321.60 228.00 L 322.20 230.20 L 322.50 232.60 L 322.30 235.30 L 321.80 237.00 L 319.40 240.40 L 317.60 241.90 L 315.10 243.30 L 311.70 244.70 L 309.80 242.90 L 306.20 240.90 L 303.50 240.10 L 300.50 239.80 L 296.60 239.90 L 294.00 238.90 L 290.90 236.60 L 288.70 233.40 L 287.90 229.70 L 288.30 225.30 L 289.20 222.30 L 292.30 216.20 L 294.90 212.20 L 298.50 207.70 L 301.90 204.30 L 305.20 201.60 L 308.70 199.40 L 312.00 197.80 L 315.10 196.70 L 321.00 195.60 L 327.00 195.80 L 331.50 196.90" fill="#0d0b6d" fill-rule="evenodd" group-id="1,2,4" id="Path" node-id="228" stroke="none" target-height="49.09999" target-width="43.600006" target-x="287.9" target-y="195.6"></path><path d="M 345.50 271.00 L 327.20 270.00 L 345.60 279.70 Z" fill="#cf3e83" fill-rule="evenodd" group-id="1,2,4" id="Path" node-id="229" stroke="none" target-height="9.700012" target-width="18.399994" target-x="327.2" target-y="270"></path><path d="M 363.40 238.40 L 369.80 251.30 L 363.30 251.80 Z" fill="#405fd3" fill-rule="evenodd" group-id="1,2,4" id="Path" node-id="230" stroke="none" target-height="13.400009" target-width="6.5" target-x="363.3" target-y="238.4"></path><path d="M 365.00 259.80 L 362.20 259.90 L 360.50 259.50 L 358.50 258.10 L 357.70 256.90" fill="none" group-id="1,2,4" id="Path" node-id="231" stroke="#182084" stroke-linecap="butt" stroke-width="2.85" target-height="3" target-width="7.299988" target-x="357.7" target-y="256.9"></path><path d="M 357.60 239.40 L 357.40 240.80 L 356.60 241.90 L 355.60 242.60 L 354.20 242.90 L 352.90 242.60 L 351.80 241.90 L 351.10 240.80 L 350.80 239.40 L 351.10 238.10 L 351.80 237.00 L 352.90 236.30 L 354.20 236.00 L 355.60 236.30 L 356.60 237.00 L 357.40 238.10 L 357.60 239.40 Z" fill="#0d0b6d" fill-rule="evenodd" group-id="1,2,4" id="Oval" node-id="232" stroke="none" target-height="6.899994" target-width="6.8000183" target-x="350.8" target-y="236"></path><path d="M 373.80 239.20 L 373.50 240.60 L 372.80 241.70 L 371.70 242.40 L 370.40 242.70 L 369.00 242.40 L 367.90 241.70 L 367.20 240.60 L 366.90 239.20 L 367.20 237.90 L 367.90 236.80 L 369.00 236.10 L 370.40 235.80 L 371.70 236.10 L 372.80 236.80 L 373.50 237.90 L 373.80 239.20 Z" fill="#0d0b6d" fill-rule="evenodd" group-id="1,2,4" id="Oval" node-id="233" stroke="none" target-height="6.899994" target-width="6.899994" target-x="366.9" target-y="235.8"></path><path d="M 293.50 435.40 L 300.80 438.00 L 306.60 440.80 L 309.20 441.70 L 312.10 442.30 L 317.80 443.00 L 319.50 443.90 L 319.80 445.20 L 319.50 446.00 L 318.50 447.00 L 317.00 447.80 L 315.20 448.30 L 313.20 448.20 L 306.20 446.90 L 304.50 446.80 L 303.00 447.00 L 301.80 447.60 L 301.00 448.50" fill="#e576c6" fill-rule="evenodd" group-id="1,2,4" id="Path" node-id="234" stroke="none" target-height="13.100006" target-width="26.299988" target-x="293.5" target-y="435.4"></path><path d="M 290.10 356.70 L 302.00 361.80 L 315.60 342.10 Z" fill="#ffc000" fill-rule="evenodd" group-id="1,2,4" id="Path" node-id="235" stroke="none" target-height="19.699982" target-width="25.5" target-x="290.1" target-y="342.1"></path><g node-id="305"><path d="M 330.50 173.60 L 337.10 173.10 L 342.10 173.30 L 347.00 174.00 L 351.70 175.10 L 356.30 176.70 L 360.70 178.70 L 364.80 181.10 L 368.70 183.90 L 372.30 187.00 L 375.60 190.50 L 378.50 194.30 L 381.20 198.40 L 383.40 202.70 L 385.10 207.30 L 386.40 212.10 L 388.20 224.80 L 287.70 236.60 L 286.50 223.80 L 286.60 218.80 L 287.30 214.00 L 288.40 209.20 L 290.00 204.60 L 292.00 200.30 L 294.40 196.10 L 297.20 192.20 L 300.40 188.60 L 303.80 185.30 L 307.60 182.40 L 311.70 179.80 L 316.00 177.60 L 320.60 175.80 L 325.40 174.50 L 330.50 173.60 Z" fill="#ffc000" fill-rule="evenodd" group-id="1,2,4,54" id="Path" node-id="236" stroke="none" target-height="63.5" target-width="101.70001" target-x="286.5" target-y="173.1"></path></g><g node-id="306"><path d="M 362.40 192.90 L 365.40 192.90 L 368.10 193.30 L 370.70 194.20 L 373.10 195.50 L 375.20 197.20 L 377.10 199.20 L 378.60 201.50 L 379.60 204.10 L 380.20 207.00 L 382.00 222.10 L 350.10 225.80 L 348.40 210.70 L 348.30 207.80 L 348.70 205.00 L 349.60 202.40 L 350.90 200.00 L 352.60 197.90 L 354.60 196.10 L 357.00 194.60 L 359.50 193.50 L 362.40 192.90 Z" fill="#ea9421" fill-rule="evenodd" group-id="1,2,4,55" id="Path" node-id="237" stroke="none" target-height="32.90001" target-width="33.700012" target-x="348.3" target-y="192.9"></path></g><path d="M 285.70 236.20 L 409.40 221.80" fill="none" group-id="1,2,4" id="Path" node-id="238" stroke="#ffc000" stroke-linecap="butt" stroke-width="7.6" target-height="14.399994" target-width="123.69998" target-x="285.7" target-y="221.8"></path><path d="M 287.50 231.80 L 387.70 220.20" fill="none" group-id="1,2,4" id="Path" node-id="239" stroke="#ea9421" stroke-linecap="butt" stroke-width="5.7" target-height="11.600006" target-width="100.20001" target-x="287.5" target-y="220.2"></path><path d="M 958.30 645.90 L 961.90 646.20 L 965.30 646.90 L 968.60 648.00 L 971.70 649.50 L 974.50 651.40 L 977.10 653.70 L 979.40 656.30 L 981.30 659.20 L 982.90 662.40 L 984.10 665.80 L 984.70 669.20 L 985.00 672.60 L 984.70 676.10 L 984.10 679.40 L 983.00 682.70 L 981.40 685.80 L 979.50 688.70 L 977.20 691.40 L 974.50 693.70 L 971.60 695.70 L 968.50 697.20 L 965.20 698.30 L 961.90 698.90 L 958.40 699.20 L 955.00 699.00 L 951.60 698.30 L 948.20 697.20 L 944.90 695.60 L 942.10 693.60 L 939.50 691.30 L 937.20 688.70 L 935.30 685.90 L 933.80 682.80 L 932.70 679.50 L 932.00 676.10 L 931.70 672.60 L 932.00 668.90 L 932.70 665.50 L 933.80 662.20 L 935.40 659.10 L 937.30 656.30 L 939.50 653.80 L 942.10 651.50 L 944.90 649.60 L 948.00 648.00 L 951.20 646.90 L 954.70 646.20 L 958.30 645.90 Z M 958.30 640.40 L 953.90 640.70 L 949.80 641.60 L 945.80 642.90 L 942.10 644.80 L 938.70 647.10 L 935.60 649.80 L 932.90 652.90 L 930.60 656.30 L 928.70 660.10 L 927.30 664.00 L 926.50 668.10 L 926.20 672.60 L 926.50 677.00 L 927.30 681.10 L 928.70 685.10 L 930.60 688.80 L 932.90 692.20 L 935.60 695.30 L 938.70 698.00 L 942.10 700.30 L 945.80 702.20 L 949.80 703.50 L 953.90 704.40 L 958.30 704.70 L 962.70 704.40 L 966.90 703.50 L 970.80 702.20 L 974.60 700.30 L 978.00 698.00 L 981.10 695.30 L 983.80 692.20 L 986.10 688.80 L 987.90 685.10 L 989.30 681.10 L 990.20 677.00 L 990.50 672.60 L 990.20 668.10 L 989.30 664.00 L 987.90 660.10 L 986.10 656.30 L 983.80 652.90 L 981.10 649.80 L 978.00 647.10 L 974.60 644.80 L 970.80 642.90 L 966.90 641.60 L 962.70 640.70 L 958.30 640.40 Z" fill="#878a93" fill-rule="nonzero" group-id="1,2,4" id="Shape" node-id="240" stroke="none" target-height="64.29999" target-width="64.29999" target-x="926.2" target-y="640.4"></path><path d="M 926.20 672.50 L 990.50 672.50 L 990.50 747.00 L 926.20 747.00 Z" fill="#878a93" fill-rule="evenodd" group-id="1,2,4" id="Rectangle" node-id="241" stroke="none" target-height="74.5" target-width="64.29999" target-x="926.2" target-y="672.5"></path><path d="M 1019.30 672.50 L 1083.50 672.50 L 1083.50 747.00 L 1019.30 747.00 Z" fill="#878a93" fill-rule="evenodd" group-id="1,2,4" id="Rectangle" node-id="242" stroke="none" target-height="74.5" target-width="64.20001" target-x="1019.3" target-y="672.5"></path><path d="M 963.90 672.50 L 990.50 672.50 L 990.50 747.00 L 963.90 747.00 Z" fill="#66666b" fill-rule="evenodd" group-id="1,2,4" id="Rectangle" node-id="243" stroke="none" target-height="74.5" target-width="26.599976" target-x="963.9" target-y="672.5"></path><path d="M 1055.10 672.50 L 1083.50 672.50 L 1083.50 747.00 L 1055.10 747.00 Z" fill="#66666b" fill-rule="evenodd" group-id="1,2,4" id="Rectangle" node-id="244" stroke="none" target-height="74.5" target-width="28.400024" target-x="1055.1" target-y="672.5"></path><path d="M 1024.80 690.10 L 1067.60 690.10 L 1067.60 730.50 L 1024.80 730.50 Z" fill="#dadde5" fill-rule="evenodd" group-id="1,2,4" id="Rectangle" node-id="245" stroke="none" target-height="40.400024" target-width="42.799927" target-x="1024.8" target-y="690.1"></path><path d="M 1062.40 710.30 L 1062.10 712.40 L 1061.20 714.50 L 1059.80 716.30 L 1057.70 718.00 L 1055.20 719.40 L 1052.40 720.40 L 1049.40 721.00 L 1046.20 721.20 L 1043.00 721.00 L 1040.00 720.40 L 1037.10 719.40 L 1034.70 718.00 L 1032.60 716.30 L 1031.20 714.50 L 1030.20 712.40 L 1029.90 710.30 L 1030.20 708.20 L 1031.20 706.10 L 1032.60 704.30 L 1034.70 702.50 L 1037.10 701.20 L 1040.00 700.20 L 1043.00 699.60 L 1046.20 699.30 L 1049.40 699.60 L 1052.40 700.20 L 1055.20 701.20 L 1057.70 702.50 L 1059.80 704.30 L 1061.20 706.10 L 1062.10 708.20 L 1062.40 710.30 Z" fill="#cf3e83" fill-rule="evenodd" group-id="1,2,4" id="Oval" node-id="246" stroke="none" target-height="21.900024" target-width="32.5" target-x="1029.9" target-y="699.3"></path><path d="M 935.70 689.60 L 981.80 689.60 L 981.80 729.90 L 935.70 729.90 Z" fill="#dadde5" fill-rule="evenodd" group-id="1,2,4" id="Rectangle" node-id="247" stroke="none" target-height="40.30005" target-width="46.099976" target-x="935.7" target-y="689.6"></path><path d="M 976.30 709.70 L 975.70 712.60 L 975.00 713.90 L 973.40 715.80 L 971.20 717.50 L 968.50 718.80 L 965.50 719.90 L 962.20 720.50 L 958.80 720.70 L 955.30 720.50 L 952.10 719.90 L 949.00 718.80 L 946.40 717.50 L 944.20 715.80 L 942.60 713.90 L 941.40 711.20 L 941.40 708.30 L 942.60 705.60 L 944.20 703.70 L 946.40 702.00 L 949.00 700.70 L 952.10 699.60 L 955.30 699.00 L 958.80 698.80 L 962.20 699.00 L 965.50 699.60 L 968.50 700.70 L 971.20 702.00 L 973.40 703.70 L 975.00 705.60 L 975.70 706.90 L 976.30 709.70 Z" fill="#367ee8" fill-rule="evenodd" group-id="1,2,4" id="Oval" node-id="248" stroke="none" target-height="21.900024" target-width="34.899963" target-x="941.4" target-y="698.8"></path></g></g></g></svg>