<?xml version="1.0" encoding="UTF-8"?>
<svg width="1240px" height="793px" viewBox="0 0 1240 793" version="1.1" xmlns="http://www.w3.org/2000/svg" xmlns:xlink="http://www.w3.org/1999/xlink">
    <title>小日常</title>
    <defs>
        <polygon id="path-1" points="0 791.300353 1239.56964 791.300353 1239.56964 0.0181908127 0 0.0181908127"></polygon>
        <polygon id="path-3" points="0.659467269 0.538098233 371.312402 0.538098233 371.312402 5.59717314 0.659467269 5.59717314"></polygon>
        <polygon id="path-5" points="0.318677201 0.0181908127 390.039061 0.0181908127 390.039061 511.51362 0.318677201 511.51362"></polygon>
    </defs>
    <g id="Page-1" stroke="none" stroke-width="1" fill="none" fill-rule="evenodd">
        <g id="30-Startup-Story-Illustrations" transform="translate(-231.000000, -6902.000000)">
            <g id="小日常" transform="translate(231.000000, 6902.000000)">
                <g id="BG" transform="translate(0.000000, 0.678657)">
                    <path d="M203.920589,590.928341 L295.561628,413.551126 C302.977835,440.920603 336.340973,455.047168 330.287226,475.087847 C324.22998,495.127126 310.405239,475.354412 302.009348,492.732935 C293.613456,510.112158 320.890657,549.402214 300.752553,569.328151 C286.13147,583.794744 269.85542,563.597345 249.292553,569.435196 C228.730386,575.274447 240.12481,605.454405 218.33174,598.951189 C212.821718,597.30632 208.027564,594.49584 203.920589,590.928341" id="Fill-1" fill="#AAD5FF"></path>
                    <path d="M254.945749,281.155312 L238.608819,589.947857 C212.211935,590.37604 192.115817,581.840351 190.965388,571.024514 C188.149497,544.596761 211.900535,544.7171 212.022296,531.022217 C212.220332,509.300288 175.111302,511.795927 172.100874,487.070415 C169.095343,462.345602 195.000287,462.936804 195.788233,439.772203 C196.576178,416.609001 148.393221,389.570457 160.650467,357.255878 C169.549497,333.793927 196.752521,346.458931 216.180354,328.962167 C235.607488,311.464705 208.920196,285.461637 235.557804,280.475955 C242.292431,279.215192 248.810129,279.593001 254.945749,281.155312" id="Fill-3" fill="#D6EEFF"></path>
                    <path d="M129.885312,416.719406 C101.468878,396.750791 62.5845214,426.182826 45.4386524,446.327752 L230.82635,609.421681 C240.523822,590.664854 238.330029,566.633392 231.6024,557.13219 C222.621497,544.450395 201.46802,559.869208 193.566869,542.899978 C185.670616,525.930748 220.445898,504.87978 207.353122,484.194028 C198.657727,470.450869 139.708043,471.04137 134.668968,467.464777 C115.432174,453.822367 153.493596,433.309427 129.885312,416.719406" id="Fill-5" fill="#C3E4FF"></path>
                    <path d="M251.106158,651.093825 L195.349544,651.093825 C194.931079,651.093825 194.514014,651.086129 194.099047,651.070736 C168.675549,650.120616 154.531011,617.969054 168.929567,594.773669 L181.702546,574.197761 L264.753156,574.197761 L277.526135,594.773669 C291.925391,617.969054 277.780853,650.120616 252.357354,651.070736 C251.941688,651.086129 251.524623,651.093825 251.106158,651.093825" id="Fill-7" fill="#E8F6FF"></path>
                    <line x1="163.167625" y1="621.520111" x2="283.288777" y2="621.520111" id="Stroke-9" stroke="#AAD5FF" stroke-width="6.3"></line>
                    <line x1="165.955456" y1="601.634824" x2="280.887081" y2="601.634824" id="Stroke-11" stroke="#AAD5FF" stroke-width="6.3"></line>
                    <path d="M1094.00309,570.934399 L1177.80175,329.044866 C1184.81839,361.967438 1215.77151,372.930201 1210.28248,399.381042 C1204.79065,425.831883 1191.88611,403.776223 1184.21519,427.357113 C1176.54356,450.937304 1202.00695,494.803749 1183.48462,523.986011 C1170.03636,545.17411 1154.86175,523.083466 1135.86708,534.627636 C1116.87241,546.172505 1127.58665,581.819502 1107.38347,578.086187 C1102.27512,577.142364 1097.82315,574.584456 1094.00309,570.934399" id="Fill-13" fill="#AAD5FF"></path>
                    <path d="M1086.70129,560.947363 L999.833413,329.523144 C981.21172,336.311816 969.198695,348.248487 971.032804,356.819158 C975.511359,377.761681 992.142894,371.266861 995.572488,381.692296 C1001.01603,398.228445 974.374226,406.326854 978.301359,426.020508 C982.230591,445.714162 1000.25888,438.279017 1006.46797,455.757589 C1012.67707,473.235462 985.480343,506.874473 1001.96912,528.249377 C1013.94156,543.76824 1029.9314,526.761929 1047.83233,534.887625 C1065.73395,543.012621 1053.36265,570.065858 1073.26702,566.692861 C1078.2984,565.839992 1082.77906,563.793526 1086.70129,560.947363" id="Fill-15" fill="#C3E4FF"></path>
                    <path d="M1047.45242,518.803938 C1050.96599,562.234503 1098.27073,570.928312 1124.49687,568.355012 L1126.15114,255.674531 C1105.8052,263.712072 1089.23594,287.169125 1086.49353,301.719676 C1082.83441,321.139768 1108.12425,326.399012 1100.55269,348.680659 C1092.97834,370.958107 1054.61811,358.472213 1047.63716,388.750122 C1042.99696,408.862164 1081.74486,461.401429 1082.34037,469.133924 C1084.62583,498.647118 1044.53366,482.721061 1047.45242,518.803938" id="Fill-17" fill="#D6EEFF"></path>
                    <path d="M1151.39689,651.093825 L1045.15996,651.093825 C1031.99581,651.093825 1021.32425,640.424913 1021.32425,627.26316 L1035.86836,538.650814 L1160.68779,538.650814 L1175.2326,627.26316 C1175.2326,640.424913 1164.56105,651.093825 1151.39689,651.093825" id="Fill-19" fill="#E8F6FF"></path>
                    <mask id="mask-2" fill="white">
                        <use xlink:href="#path-1"></use>
                    </mask>
                    <g id="Clip-22"></g>
                    <polygon id="Fill-21" fill="#D6EEFF" mask="url(#mask-2)" points="1042.85749 614.013392 1078.51799 614.013392 1078.51799 578.3587 1042.85749 578.3587"></polygon>
                    <polygon id="Fill-23" fill="#D6EEFF" mask="url(#mask-2)" points="1120.23783 621.397113 1095.02217 596.186046 1120.23783 570.974279 1145.4542 596.186046"></polygon>
                    <polygon id="Fill-24" fill="#D6EEFF" mask="url(#mask-2)" points="978.264831 178.314742 1065.91436 178.314742 1065.91436 104.677633 978.264831 104.677633"></polygon>
                    <polygon id="Stroke-25" stroke="#D6EEFF" stroke-width="3.5" mask="url(#mask-2)" points="978.264831 178.314742 1065.91436 178.314742 1065.91436 104.677633 978.264831 104.677633"></polygon>
                    <polygon id="Fill-26" fill="#FFFFFF" mask="url(#mask-2)" points="973.110993 178.413392 1060.76052 178.413392 1060.76052 104.776982 973.110993 104.776982"></polygon>
                    <polygon id="Stroke-27" stroke="#D6EEFF" stroke-width="3.5" mask="url(#mask-2)" points="973.110993 178.413392 1060.76052 178.413392 1060.76052 104.776982 973.110993 104.776982"></polygon>
                    <polygon id="Fill-28" fill="#D6EEFF" mask="url(#mask-2)" points="988.039278 163.200276 1044.58314 163.200276 1044.58314 119.792099 988.039278 119.792099"></polygon>
                    <polygon id="Fill-29" fill="#D6EEFF" mask="url(#mask-2)" points="322.381106 344.14289 458.89167 344.14289 458.89167 228.39335 322.381106 228.39335"></polygon>
                    <polygon id="Stroke-30" stroke="#D6EEFF" stroke-width="3.5" mask="url(#mask-2)" points="322.381106 344.14289 458.89167 344.14289 458.89167 228.39335 322.381106 228.39335"></polygon>
                    <polygon id="Fill-31" fill="#FFFFFF" mask="url(#mask-2)" points="314.354695 344.298212 450.86526 344.298212 450.86526 228.548671 314.354695 228.548671"></polygon>
                    <polygon id="Stroke-32" stroke="#D6EEFF" stroke-width="3.5" mask="url(#mask-2)" points="314.354695 344.298212 450.86526 344.298212 450.86526 228.548671 314.354695 228.548671"></polygon>
                    <polygon id="Fill-33" fill="#D6EEFF" mask="url(#mask-2)" points="337.604695 320.384989 425.669187 320.384989 425.669187 252.151251 337.604695 252.151251"></polygon>
                    <polygon id="Fill-34" fill="#D6EEFF" mask="url(#mask-2)" points="504.449074 279.832071 557.714492 279.832071 557.714492 217.752424 504.449074 217.752424"></polygon>
                    <polygon id="Stroke-35" stroke="#D6EEFF" stroke-width="3.5" mask="url(#mask-2)" points="504.449074 279.832071 557.714492 279.832071 557.714492 217.752424 504.449074 217.752424"></polygon>
                    <polygon id="Fill-36" fill="#FFFFFF" mask="url(#mask-2)" points="500.764063 279.832071 555.021061 279.832071 555.021061 217.752424 500.764063 217.752424"></polygon>
                    <polygon id="Stroke-37" stroke="#D6EEFF" stroke-width="3.5" mask="url(#mask-2)" points="500.764063 279.832071 555.021061 279.832071 555.021061 217.752424 500.764063 217.752424"></polygon>
                    <polygon id="Fill-38" fill="#C3E4FF" mask="url(#mask-2)" points="513.606321 263.67723 539.67781 263.67723 539.67781 233.792523 513.606321 233.792523"></polygon>
                    <polygon id="Fill-39" fill="#D6EEFF" mask="url(#mask-2)" points="819.42447 210.509682 907.073995 210.509682 907.073995 72.5792438 819.42447 72.5792438"></polygon>
                    <polygon id="Stroke-40" stroke="#D6EEFF" stroke-width="3.5" mask="url(#mask-2)" points="819.42447 210.509682 907.073995 210.509682 907.073995 72.5792438 819.42447 72.5792438"></polygon>
                    <polygon id="Fill-41" fill="#FFFFFF" mask="url(#mask-2)" points="736.381558 210.509682 900.646569 210.509682 900.646569 72.5792438 736.381558 72.5792438"></polygon>
                    <polygon id="Stroke-42" stroke="#D6EEFF" stroke-width="3.5" mask="url(#mask-2)" points="736.381558 210.509682 900.646569 210.509682 900.646569 72.5792438 736.381558 72.5792438"></polygon>
                    <polygon id="Fill-43" fill="#FFFFFF" mask="url(#mask-2)" points="751.50088 195.503661 885.526546 195.503661 885.526546 87.5838657 751.50088 87.5838657"></polygon>
                    <polygon id="Stroke-44" stroke="#D6EEFF" stroke-width="3.5" mask="url(#mask-2)" points="751.50088 195.503661 885.526546 195.503661 885.526546 87.5838657 751.50088 87.5838657"></polygon>
                    <polygon id="Fill-45" fill="#AAD5FF" mask="url(#mask-2)" points="779.46526 172.87429 857.562867 172.87429 857.562867 110.213936 779.46526 110.213936"></polygon>
                    <polygon id="Fill-46" fill="#D6EEFF" mask="url(#mask-2)" points="381.363959 147.267293 455.102673 147.267293 465.06046 47.8097237 391.321747 47.8097237"></polygon>
                    <polygon id="Stroke-47" stroke="#D6EEFF" stroke-width="3.5" mask="url(#mask-2)" points="381.363959 147.267293 455.102673 147.267293 465.06046 47.8097237 391.321747 47.8097237"></polygon>
                    <polygon id="Fill-48" fill="#FFFFFF" mask="url(#mask-2)" points="377.383713 147.267293 452.494684 147.267293 462.452472 47.8097237 387.341501 47.8097237"></polygon>
                    <polygon id="Stroke-49" stroke="#D6EEFF" stroke-width="3.5" mask="url(#mask-2)" points="377.383713 147.267293 452.494684 147.267293 462.452472 47.8097237 387.341501 47.8097237"></polygon>
                    <polygon id="Fill-50" fill="#D6EEFF" mask="url(#mask-2)" points="391.769393 134.134925 440.738896 134.134925 448.066932 60.9420912 399.097429 60.9420912"></polygon>
                    <polygon id="Fill-51" fill="#D6EEFF" mask="url(#mask-2)" points="358.338097 74.5758254 351.056946 147.268412 255.467781 147.268412 262.748932 74.5758254"></polygon>
                    <polygon id="Stroke-52" stroke="#D6EEFF" stroke-width="3.5" mask="url(#mask-2)" points="358.338097 74.5758254 351.056946 147.268412 255.467781 147.268412 262.748932 74.5758254"></polygon>
                    <polygon id="Fill-53" fill="#FFFFFF" mask="url(#mask-2)" points="356.199097 74.5758254 348.918646 147.268412 251.551354 147.268412 258.831806 74.5758254"></polygon>
                    <polygon id="Stroke-54" stroke="#D6EEFF" stroke-width="3.5" mask="url(#mask-2)" points="356.199097 74.5758254 348.918646 147.268412 251.551354 147.268412 258.831806 74.5758254"></polygon>
                    <polygon id="Fill-55" fill="#C3E4FF" mask="url(#mask-2)" points="335.669889 88.8362332 331.245916 133.008424 272.080002 133.008424 276.504675 88.8362332"></polygon>
                    <polygon id="Fill-56" fill="#D6EEFF" mask="url(#mask-2)" points="180.121196 159.610389 455.839255 159.610389 455.839255 147.268622 180.121196 147.268622"></polygon>
                    <polygon id="Fill-57" fill="#C3E4FF" mask="url(#mask-2)" points="455.837856 159.609689 501.195124 159.609689 501.195124 147.267223 455.837856 147.267223"></polygon>
                    <polygon id="Fill-58" fill="#AAD5FF" mask="url(#mask-2)" points="242.17109 159.609479 256.955921 186.590652 256.955921 159.609479"></polygon>
                    <polygon id="Fill-59" fill="#C3E4FF" mask="url(#mask-2)" points="233.98905 159.609479 248.77388 186.590652 256.956341 186.590652 242.17081 159.609479"></polygon>
                    <polygon id="Fill-60" fill="#AAD5FF" mask="url(#mask-2)" points="410.816688 159.609479 425.601519 186.590652 425.601519 159.609479"></polygon>
                    <polygon id="Fill-61" fill="#C3E4FF" mask="url(#mask-2)" points="402.634648 159.609479 417.419479 186.590652 425.601939 186.590652 410.816409 159.609479"></polygon>
                    <path d="M666.460183,140.022452 C666.460183,167.366042 644.289935,189.531547 616.942056,189.531547 C589.594178,189.531547 567.42393,167.366042 567.42393,140.022452 C567.42393,112.679561 589.594178,90.5133562 616.942056,90.5133562 C644.289935,90.5133562 666.460183,112.679561 666.460183,140.022452" id="Fill-62" fill="#C3E4FF" mask="url(#mask-2)"></path>
                    <path d="M656.750815,140.022452 C656.750815,167.366042 634.580567,189.531547 607.232688,189.531547 C579.88481,189.531547 557.714562,167.366042 557.714562,140.022452 C557.714562,112.679561 579.88481,90.5133562 607.232688,90.5133562 C634.580567,90.5133562 656.750815,112.679561 656.750815,140.022452" id="Fill-63" fill="#D6EEFF" mask="url(#mask-2)"></path>
                    <path d="M644.757594,140.018673 C644.757594,159.344313 630.148406,175.252878 611.376262,177.314737 C610.014501,177.465161 608.636646,177.540723 607.236397,177.540723 C586.507684,177.540723 569.707503,160.744306 569.707503,140.018673 C569.707503,119.301437 586.507684,102.50432 607.236397,102.50432 C608.636646,102.50432 610.014501,102.579882 611.376262,102.730306 C630.148406,104.792165 644.757594,120.70143 644.757594,140.018673" id="Fill-64" fill="#C3E4FF" mask="url(#mask-2)"></path>
                    <path d="M644.757594,140.018673 C644.757594,159.344313 630.148406,175.252878 611.376262,177.314737 C592.59712,175.252878 577.987233,159.344313 577.987233,140.018673 C577.987233,120.70143 592.59712,104.792165 611.376262,102.730306 C630.148406,104.792165 644.757594,120.70143 644.757594,140.018673" id="Fill-65" fill="#E8F6FF" mask="url(#mask-2)"></path>
                    <line x1="608.860643" y1="119.159129" x2="621.019221" y2="145.671539" id="Stroke-66" stroke="#C3E4FF" stroke-width="5.6" mask="url(#mask-2)"></line>
                    <line x1="622.176858" y1="134.557162" x2="595.543449" y2="163.500844" id="Stroke-67" stroke="#C3E4FF" stroke-width="5.6" mask="url(#mask-2)"></line>
                    <path d="M387.299795,467.354233 L387.299795,467.354233 C387.299795,472.184593 391.216431,476.099816 396.047673,476.099816 L474.749885,476.099816 L474.749885,458.60795 L396.047673,458.60795 C391.216431,458.60795 387.299795,462.523872 387.299795,467.354233" id="Fill-68" fill="#C3E4FF" mask="url(#mask-2)"></path>
                    <path d="M440.234219,467.354233 L440.234219,467.354233 C440.234219,470.15072 442.501488,472.417575 445.298485,472.417575 L474.539253,472.417575 C474.655415,472.417575 474.749885,472.323123 474.749885,472.206982 L474.749885,462.501483 C474.749885,462.385342 474.655415,462.29089 474.539253,462.29089 L445.298485,462.29089 C442.501488,462.29089 440.234219,464.557745 440.234219,467.354233" id="Fill-69" fill="#D6EEFF" mask="url(#mask-2)"></path>
                    <path d="M376.315228,476.100165 L376.315228,493.592031 L462.218817,493.592031 C467.050059,493.592031 470.966695,489.676109 470.966695,484.845748 C470.966695,480.016088 467.050059,476.100165 462.218817,476.100165 L376.315228,476.100165 Z" id="Fill-70" fill="#C3E4FF" mask="url(#mask-2)"></path>
                    <path d="M376.315228,479.831381 L376.315228,489.860816 L411.635634,489.860816 C414.405341,489.860816 416.650916,487.615649 416.650916,484.845748 C416.650916,482.076547 414.405341,479.831381 411.635634,479.831381 L376.315228,479.831381 Z" id="Fill-71" fill="#D6EEFF" mask="url(#mask-2)"></path>
                    <polygon id="Fill-72" fill="#D6EEFF" mask="url(#mask-2)" points="601.219878 493.592031 751.251481 493.592031 771.512745 291.233233 621.480442 291.233233"></polygon>
                    <polygon id="Stroke-73" stroke="#D6EEFF" stroke-width="3.5" mask="url(#mask-2)" points="601.219878 493.592031 751.251481 493.592031 771.512745 291.233233 621.480442 291.233233"></polygon>
                    <polygon id="Fill-74" fill="#FFFFFF" mask="url(#mask-2)" points="593.12188 493.592031 745.944883 493.592031 766.205447 291.233233 613.381745 291.233233"></polygon>
                    <polygon id="Stroke-75" stroke="#D6EEFF" stroke-width="3.5" mask="url(#mask-2)" points="593.12188 493.592031 745.944883 493.592031 766.205447 291.233233 613.381745 291.233233"></polygon>
                    <polygon id="Fill-76" fill="#C3E4FF" mask="url(#mask-2)" points="622.391479 466.872596 722.025339 466.872596 736.935429 317.952108 637.301569 317.952108"></polygon>
                    <polygon id="Fill-77" fill="#D6EEFF" mask="url(#mask-2)" points="797.090404 493.592031 947.121307 493.592031 967.382571 291.233233 817.350269 291.233233"></polygon>
                    <polygon id="Stroke-78" stroke="#D6EEFF" stroke-width="3.5" mask="url(#mask-2)" points="797.090404 493.592031 947.121307 493.592031 967.382571 291.233233 817.350269 291.233233"></polygon>
                    <polygon id="Fill-79" fill="#FFFFFF" mask="url(#mask-2)" points="788.991707 493.592031 941.815409 493.592031 962.075273 291.233233 809.251571 291.233233"></polygon>
                    <polygon id="Stroke-80" stroke="#D6EEFF" stroke-width="3.5" mask="url(#mask-2)" points="788.991707 493.592031 941.815409 493.592031 962.075273 291.233233 809.251571 291.233233"></polygon>
                    <polygon id="Fill-81" fill="#D6EEFF" mask="url(#mask-2)" points="818.261305 466.872596 917.895865 466.872596 932.805255 317.952108 833.171395 317.952108"></polygon>
                    <polygon id="Fill-82" fill="#D6EEFF" mask="url(#mask-2)" points="672.550388 351.349601 658.307183 493.591961 508.272081 493.591961 522.515287 351.349601"></polygon>
                    <polygon id="Stroke-83" stroke="#D6EEFF" stroke-width="3.5" mask="url(#mask-2)" points="672.550388 351.349601 658.307183 493.591961 508.272081 493.591961 522.515287 351.349601"></polygon>
                    <polygon id="Fill-84" fill="#FFFFFF" mask="url(#mask-2)" points="667.241971 351.349601 652.998765 493.591961 500.174363 493.591961 514.417569 351.349601"></polygon>
                    <polygon id="Stroke-85" stroke="#D6EEFF" stroke-width="3.5" mask="url(#mask-2)" points="667.241971 351.349601 652.998765 493.591961 500.174363 493.591961 514.417569 351.349601"></polygon>
                    <polygon id="Fill-86" fill="#D6EEFF" mask="url(#mask-2)" points="635.293567 378.550393 626.498104 466.391029 532.123047 466.391029 540.91851 378.550393"></polygon>
                    <polygon id="Fill-87" fill="#C3E4FF" mask="url(#mask-2)" points="302.304582 607.876092 913.894695 607.876092 913.894695 506.64142 302.304582 506.64142"></polygon>
                    <polygon id="Fill-88" fill="#D6EEFF" mask="url(#mask-2)" points="318.106885 597.04836 416.841535 597.04836 416.841535 517.470551 318.106885 517.470551"></polygon>
                    <polygon id="Fill-89" fill="#D6EEFF" mask="url(#mask-2)" points="437.633228 551.286572 536.367878 551.286572 536.367878 517.470551 437.633228 517.470551"></polygon>
                    <polygon id="Fill-90" fill="#D6EEFF" mask="url(#mask-2)" points="437.633228 597.04836 536.367878 597.04836 536.367878 563.232339 437.633228 563.232339"></polygon>
                    <polygon id="Fill-91" fill="#D6EEFF" mask="url(#mask-2)" points="796.210158 551.286572 894.945508 551.286572 894.945508 517.470551 796.210158 517.470551"></polygon>
                    <polygon id="Fill-92" fill="#D6EEFF" mask="url(#mask-2)" points="796.210158 597.04836 894.945508 597.04836 894.945508 563.232339 796.210158 563.232339"></polygon>
                    <polygon id="Fill-93" fill="#D6EEFF" mask="url(#mask-2)" points="557.158172 597.04836 655.892822 597.04836 655.892822 517.470551 557.158172 517.470551"></polygon>
                    <polygon id="Fill-94" fill="#D6EEFF" mask="url(#mask-2)" points="676.684515 597.04836 775.419165 597.04836 775.419165 517.470551 676.684515 517.470551"></polygon>
                    <polygon id="Fill-95" fill="#AAD5FF" mask="url(#mask-2)" points="913.894695 607.876092 996.43167 607.876092 996.43167 506.64142 913.894695 506.64142"></polygon>
                    <polygon id="Fill-96" fill="#D6EEFF" mask="url(#mask-2)" points="289.07395 506.64212 923.977743 506.64212 923.977743 493.592311 289.07395 493.592311"></polygon>
                    <polygon id="Fill-97" fill="#AAD5FF" mask="url(#mask-2)" points="923.977743 506.64212 1009.6616 506.64212 1009.6616 493.592311 923.977743 493.592311"></polygon>
                    <line x1="917.671587" y1="607.876302" x2="917.671587" y2="653.649984" id="Stroke-98" stroke="#C3E4FF" stroke-width="7" mask="url(#mask-2)"></line>
                    <line x1="992.710761" y1="607.876302" x2="992.710761" y2="653.649984" id="Stroke-99" stroke="#C3E4FF" stroke-width="7" mask="url(#mask-2)"></line>
                    <line x1="305.204727" y1="607.876302" x2="305.204727" y2="653.649984" id="Stroke-100" stroke="#C3E4FF" stroke-width="7" mask="url(#mask-2)"></line>
                    <line x1="376.850625" y1="607.876302" x2="376.850625" y2="653.649984" id="Stroke-101" stroke="#C3E4FF" stroke-width="7" mask="url(#mask-2)"></line>
                    <path d="M409.317702,447.944216 L414.9047,393.50541 L432.376664,393.50541 L437.964361,447.944216 C438.549372,453.649134 434.072217,458.60823 428.336167,458.60823 L418.945196,458.60823 C413.209847,458.60823 408.731991,453.649134 409.317702,447.944216" id="Fill-102" fill="#D6EEFF" mask="url(#mask-2)"></path>
                    <path d="M393.114219,524.467367 L341.834061,524.467367 C337.969208,524.467367 334.836318,521.33435 334.836318,517.470201 L400.112661,517.470201 C400.112661,521.33435 396.979072,524.467367 393.114219,524.467367" id="Fill-103" fill="#AAD5FF" mask="url(#mask-2)"></path>
                    <path d="M512.640352,524.467367 L461.360194,524.467367 C457.495341,524.467367 454.361752,521.33435 454.361752,517.470201 L519.638095,517.470201 C519.638095,521.33435 516.505205,524.467367 512.640352,524.467367" id="Fill-104" fill="#AAD5FF" mask="url(#mask-2)"></path>
                    <path d="M633.739578,524.467367 L582.45942,524.467367 C578.593867,524.467367 575.460977,521.33435 575.460977,517.470201 L640.737321,517.470201 C640.737321,521.33435 637.603731,524.467367 633.739578,524.467367" id="Fill-105" fill="#AAD5FF" mask="url(#mask-2)"></path>
                    <path d="M751.691849,524.467367 L700.412391,524.467367 C696.546837,524.467367 693.413948,521.33435 693.413948,517.470201 L758.690291,517.470201 C758.690291,521.33435 755.556702,524.467367 751.691849,524.467367" id="Fill-106" fill="#AAD5FF" mask="url(#mask-2)"></path>
                    <path d="M512.640352,570.229295 L461.360194,570.229295 C457.495341,570.229295 454.361752,567.096278 454.361752,563.232129 L519.638095,563.232129 C519.638095,567.096278 516.505205,570.229295 512.640352,570.229295" id="Fill-107" fill="#AAD5FF" mask="url(#mask-2)"></path>
                    <path d="M871.217912,524.467367 L819.937754,524.467367 C816.072201,524.467367 812.940011,521.33435 812.940011,517.470201 L878.215655,517.470201 C878.215655,521.33435 875.082065,524.467367 871.217912,524.467367" id="Fill-108" fill="#AAD5FF" mask="url(#mask-2)"></path>
                    <path d="M871.217912,570.229295 L819.937754,570.229295 C816.072201,570.229295 812.940011,567.096278 812.940011,563.232129 L878.215655,563.232129 C878.215655,567.096278 875.082065,570.229295 871.217912,570.229295" id="Fill-109" fill="#AAD5FF" mask="url(#mask-2)"></path>
                    <g id="Group-112" mask="url(#mask-2)">
                        <g transform="translate(6.997743, 655.568905)">
                            <line x1="1225.57366" y1="0.933538516" x2="0.00020993228" y2="0.933538516" id="Fill-110" stroke="none" fill="#E8F6FF" fill-rule="evenodd"></line>
                            <line x1="1225.57366" y1="0.933538516" x2="0.00020993228" y2="0.933538516" id="Stroke-111" stroke="#D6EEFF" stroke-width="14" fill="none" stroke-linecap="round"></line>
                        </g>
                    </g>
                </g>
                <g id="Girl" transform="translate(435.000000, 0.678657)">
                    <g id="Group-116" transform="translate(8.656885, 785.703180)">
                        <mask id="mask-4" fill="white">
                            <use xlink:href="#path-3"></use>
                        </mask>
                        <g id="Clip-115"></g>
                        <path d="M0.659467269,3.06802049 C0.659467269,4.46451519 83.6331016,5.59724311 185.985585,5.59724311 C288.338767,5.59724311 371.312402,4.46451519 371.312402,3.06802049 C371.312402,1.67082615 288.338767,0.538098233 185.985585,0.538098233 C83.6331016,0.538098233 0.659467269,1.67082615 0.659467269,3.06802049" id="Fill-114" fill="#AFB4C8" mask="url(#mask-4)"></path>
                    </g>
                    <g id="Group-119" transform="translate(0.259594, 0.000000)">
                        <mask id="mask-6" fill="white">
                            <use xlink:href="#path-5"></use>
                        </mask>
                        <g id="Clip-118"></g>
                        <path d="M378.142898,511.51362 L12.2148397,511.51362 C5.67195034,511.51362 0.318677201,506.161323 0.318677201,499.619627 L0.318677201,11.9120438 C0.318677201,5.3703477 5.67195034,0.0180508834 12.2148397,0.0180508834 L378.142898,0.0180508834 C384.685788,0.0180508834 390.039061,5.3703477 390.039061,11.9120438 L390.039061,499.619627 C390.039061,506.161323 384.685788,511.51362 378.142898,511.51362" id="Fill-117" fill="#007EFF" mask="url(#mask-6)"></path>
                    </g>
                    <polygon id="Fill-120" fill="#FFFFFF" points="104.714898 222.095131 349.528126 222.095131 349.528126 212.623314 104.714898 212.623314"></polygon>
                    <polygon id="Fill-122" fill="#FFFFFF" points="104.714898 241.900728 277.181964 241.900728 277.181964 232.428912 104.714898 232.428912"></polygon>
                    <polygon id="Fill-123" fill="#FFFFFF" points="104.714898 467.130975 271.874876 467.130975 271.874876 454.106353 104.714898 454.106353"></polygon>
                    <path d="M53.5456546,250.942401 L53.5456546,250.942401 C40.5186569,250.942401 29.8610948,240.286083 29.8610948,227.262161 C29.8610948,214.238239 40.5186569,203.581921 53.5456546,203.581921 C66.5719526,203.581921 77.2302144,214.238239 77.2302144,227.262161 C77.2302144,240.286083 66.5719526,250.942401 53.5456546,250.942401 Z" id="Stroke-124" stroke="#FFFFFF" stroke-width="4.2"></path>
                    <path d="M53.5456546,408.356389 L53.5456546,408.356389 C40.5186569,408.356389 29.8610948,397.700071 29.8610948,384.676149 C29.8610948,371.651527 40.5186569,360.995909 53.5456546,360.995909 C66.5719526,360.995909 77.2302144,371.651527 77.2302144,384.676149 C77.2302144,397.700071 66.5719526,408.356389 53.5456546,408.356389 Z" id="Stroke-125" stroke="#FFFFFF" stroke-width="4.2"></path>
                    <path d="M53.5456546,329.64922 L53.5456546,329.64922 C40.5186569,329.64922 29.8610948,318.993602 29.8610948,305.96898 C29.8610948,292.945058 40.5186569,282.28874 53.5456546,282.28874 C66.5719526,282.28874 77.2302144,292.945058 77.2302144,305.96898 C77.2302144,318.993602 66.5719526,329.64922 53.5456546,329.64922 Z" id="Stroke-126" stroke="#FFFFFF" stroke-width="4.2"></path>
                    <polygon id="Fill-127" fill="#FFFFFF" points="104.714898 300.80258 349.528126 300.80258 349.528126 291.330064 104.714898 291.330064"></polygon>
                    <polygon id="Fill-128" fill="#FFFFFF" points="104.714898 320.607477 277.181964 320.607477 277.181964 311.134961 104.714898 311.134961"></polygon>
                    <polygon id="Fill-129" fill="#FFFFFF" points="104.714898 379.509329 349.528126 379.509329 349.528126 370.036813 104.714898 370.036813"></polygon>
                    <polygon id="Fill-130" fill="#FFFFFF" points="104.714898 399.314926 277.181964 399.314926 277.181964 389.84241 104.714898 389.84241"></polygon>
                    <polyline id="Stroke-131" stroke="#FFFFFF" stroke-width="6.3" points="29.8408014 138.633093 47.2245937 152.375553 78.0370542 116.748846"></polyline>
                    <polyline id="Stroke-132" stroke="#FFFFFF" stroke-width="6.3" points="29.8408014 59.9262742 47.2245937 73.6680339 78.0370542 38.0420269"></polyline>
                    <polygon id="Fill-133" fill="#FFFFFF" points="104.714898 49.3208905 349.528126 49.3208905 349.528126 37.3415406 104.714898 37.3415406"></polygon>
                    <polygon id="Fill-134" fill="#FFFFFF" points="104.714898 74.3689399 277.181964 74.3689399 277.181964 62.3888905 104.714898 62.3888905"></polygon>
                    <line x1="94.9177088" y1="43.3312155" x2="359.324616" y2="43.3312155" id="Stroke-135" stroke="#A6A7AF" stroke-width="2.1"></line>
                    <line x1="94.9177088" y1="68.3791251" x2="286.516603" y2="68.3791251" id="Stroke-136" stroke="#A6A7AF" stroke-width="2.1"></line>
                    <polygon id="Fill-137" fill="#FFFFFF" points="104.714898 128.028339 349.528126 128.028339 349.528126 116.04829 104.714898 116.04829"></polygon>
                    <polygon id="Fill-138" fill="#FFFFFF" points="104.714898 153.075689 277.181964 153.075689 277.181964 141.096339 104.714898 141.096339"></polygon>
                    <line x1="94.9177088" y1="122.038314" x2="359.324616" y2="122.038314" id="Stroke-139" stroke="#A6A7AF" stroke-width="2.1"></line>
                    <line x1="94.9177088" y1="147.086224" x2="286.516603" y2="147.086224" id="Stroke-140" stroke="#A6A7AF" stroke-width="2.1"></line>
                    <line x1="42.8481354" y1="182.015943" x2="346.589354" y2="182.015943" id="Stroke-141" stroke="#C2C7D0" stroke-width="2.1"></line>
                    <line x1="53.5456546" y1="442.392449" x2="53.5456546" y2="478.846139" id="Stroke-142" stroke="#FFFFFF" stroke-width="6.3"></line>
                    <line x1="35.3156253" y1="460.619154" x2="71.7759639" y2="460.619154" id="Stroke-143" stroke="#FFFFFF" stroke-width="6.3"></line>
                    <path d="M77.5046659,268.437346 L79.0623634,263.434872 C79.0623634,263.434872 79.9412799,259.897459 80.4486163,255.959847 C80.9552528,252.021536 79.5018217,246.804971 83.9187968,240.811798 C88.3343725,234.824922 80.641754,237.693473 78.3947788,240.501155 C76.5221828,242.842172 75.7545305,248.62895 73.7601738,250.279416 C72.6832212,249.24254 72.0786163,248.108413 72.0786163,248.108413 L57.7115508,224.410681 C57.4148465,223.66066 56.6241016,223.24577 55.8599481,223.431176 L54.9971264,223.646667 C54.0888194,223.874052 53.5751851,224.847261 53.8956817,225.747006 C55.6150271,230.61095 61.1110542,243.14442 60.8507381,243.204589 L52.9537856,254.900582 C52.9537856,254.900582 53.6318668,262.702342 57.5163138,268.049741 C59.1558849,270.315897 61.9339887,272.850717 63.4538984,274.270999" id="Fill-144" fill="#FF77CA"></path>
                    <path d="M143.820944,371.01177 C143.820944,371.01177 95.2818014,343.468081 85.2253454,332.589276 C74.0142619,316.683509 61.6814402,268.34842 61.6814402,268.34842 L77.2983025,266.893855 L101.058438,317.406244 L153.785729,351.928208 L143.820944,371.01177 Z" id="Fill-145" fill="#FF77CA"></path>
                    <path d="M225.783404,499.742625 L214.744465,495.190024 L225.214488,435.633303 L208.885955,401.414985 L232.487242,387.920201 C232.487242,387.920201 244.153878,420.813388 244.479273,431.564158 C245.048889,450.378356 225.783404,499.742625 225.783404,499.742625" id="Fill-146" fill="#FF77CA"></path>
                    <polygon id="Fill-147" fill="#FF9200" points="239.345589 394.761835 207.896334 405.462231 198.550849 368.411743 223.22209 360.901736"></polygon>
                    <path d="M122.692379,327.171772 L118.224321,367.376266 L136.203621,376.420599 C136.203621,376.420599 142.664637,390.565355 147.476284,397.901849 C154.551002,408.686902 160.890957,437.369616 160.890957,437.369616 L219.031002,437.369616 L219.403982,414.864083 C219.403982,414.864083 233.777345,361.206083 219.919016,355.140146 C205.746488,348.931482 198.820122,350.738669 178.053621,350.770153 C158.504727,350.803037 122.692379,327.171772 122.692379,327.171772" id="Fill-148" fill="#FFC100"></path>
                    <path d="M216.24688,729.243795 L187.438573,739.305413 L155.031327,524.315194 C150.68223,498.024572 151.957219,471.109166 158.775819,445.348177 L160.891237,437.369406 L202.875594,437.369406 L211.771124,594.451272 L216.24688,729.243795 Z" id="Fill-149" fill="#272636"></path>
                    <path d="M261.318781,737.936135 L231.1907,735.606312 L211.770564,594.451202 L186.650068,437.369336 L219.030722,437.369336 L230.029074,453.781647 C236.898758,464.045464 241.07781,475.868093 242.176456,488.171379 L261.318781,737.936135 Z" id="Fill-150" fill="#272636"></path>
                    <polygon id="Fill-151" fill="#0B096F" points="218.122065 763.579794 197.173623 788.842635 168.006332 788.842635 187.136061 775.659193 195.172968 752.4785 194.85737 740.922437 213.702991 731.275709"></polygon>
                    <polygon id="Fill-152" fill="#EF3C86" points="213.606352 733.13558 215.615404 745.254859 195.170799 752.476611 194.20651 739.817205"></polygon>
                    <polygon id="Fill-153" fill="#0B096F" points="262.581664 763.579794 241.633221 788.842635 212.46523 788.842635 231.594959 775.659193 239.631867 752.4785 239.316269 740.922437 258.162589 731.275709"></polygon>
                    <polygon id="Fill-154" fill="#EF3C86" points="257.703047 730.266678 259.796772 742.32159 239.657269 749.313159 238.590813 736.730014"></polygon>
                    <polygon id="Fill-155" fill="#272636" points="222.530503 739.68798 184.267546 746.745316 182.256395 735.833627 220.519352 728.776291"></polygon>
                    <polygon id="Fill-156" fill="#272636" points="266.503549 737.457157 228.241291 743.887609 226.23014 733.944931 264.493097 727.513779"></polygon>
                    <path d="M225.650797,314.719601 C219.636937,334.192866 198.974002,345.105254 179.502084,339.092491 C161.387727,333.500216 150.679081,315.23594 154.111474,297.043728 C154.364792,295.676618 154.704183,294.309509 155.124747,292.947297 C158.294725,282.689777 165.527591,274.807558 174.511293,270.525021 C182.576192,266.676965 192.060932,265.73524 201.278359,268.579304 C220.750977,274.592067 231.665357,295.251233 225.650797,314.719601" id="Fill-157" fill="#25003F"></path>
                    <path d="M242.343562,279.663106 C239.010537,290.455155 227.558032,296.502901 216.764014,293.170484 C205.969995,289.838067 199.921147,278.38765 203.254172,267.594901 C206.587196,256.802852 218.039702,250.755806 228.83372,254.088223 C239.628438,257.41994 245.677287,268.871057 242.343562,279.663106" id="Fill-158" fill="#25003F"></path>
                    <polygon id="Fill-159" fill="#285FD7" points="155.607801 308.44496 145.025815 320.035306 151.378366 322.511355"></polygon>
                    <path d="M168.055386,345.412819 C168.055386,345.412819 152.089336,338.5206 150.216041,332.379102 C144.943941,315.087335 169.910488,281.176861 169.910488,281.176861 L200.03507,318.00766 C200.03507,318.00766 195.234619,354.167498 195.117756,354.167498 C195.027485,354.167498 168.377282,353.850558 168.377282,353.850558 L168.055386,345.412819 Z" id="Fill-160" fill="#FF77CA"></path>
                    <path d="M154.788436,308.525279 C154.009587,310.100184 154.276201,311.815018 155.383244,312.355145 C156.490986,312.895272 158.019993,312.055696 158.798842,310.480792 C159.578391,308.905887 159.311777,307.191053 158.204734,306.651625 C157.096991,306.111498 155.567284,306.950375 154.788436,308.525279" id="Fill-161" fill="#0B096F"></path>
                    <path d="M201.527758,322.227789 C192.021325,329.071732 179.189564,328.146799 170.147081,320.771124 C169.425614,320.191817 168.734937,319.57123 168.069451,318.901669 C166.986201,317.840305 165.984824,316.6614 165.070219,315.391541 C156.404214,303.358319 158.675682,286.913124 170.146381,278.654495 C171.249926,277.859697 172.396856,277.169146 173.578074,276.589139 C184.69049,271.066828 198.780445,274.60564 206.615117,285.483047 C215.198549,297.402227 213.042544,313.648722 201.854553,321.982912 C201.748187,322.068969 201.638323,322.148729 201.527758,322.227789" id="Fill-162" fill="#25003F"></path>
                    <path d="M209.487691,390.568013 L166.353605,391.357215 L164.671348,304.985137 L227.306043,303.839816 L228.583131,369.403702 C228.807059,380.895399 220.257916,390.370713 209.487691,390.568013" id="Fill-163" fill="#25003F"></path>
                    <polygon id="Fill-164" fill="#0D0D11" points="201.270801 484.493196 205.787144 497.506624 211.825497 594.790391"></polygon>
                    <path d="M164.525095,319.336989 C164.525095,319.336989 163.731551,311.398798 169.31505,311.407187 C173.475208,311.412791 174.600445,315.372091 174.597651,317.659236 C174.58505,325.381236 166.18286,326.544748 163.242409,332.133526" id="Fill-165" fill="#FF77CA"></path>
                    <path d="M149.516546,327.419796 C149.516546,327.419796 151.345056,327.922143 153.47377,325.269083" id="Stroke-166" stroke="#0C245F" stroke-width="2.1"></path>
                </g>
            </g>
        </g>
    </g>
</svg>